<?xml version="1.0" encoding="UTF-8"?>
<svg id="Layer_1" data-name="Layer 1" xmlns="http://www.w3.org/2000/svg" viewBox="0 0 880.59 815.7">
  <defs>
    <style>
      .cls-1 {
        fill: #fff;
      }

      .cls-2 {
        fill: #dfdaeb;
      }

      .cls-3 {
        fill: #7377de;
      }

      .cls-4 {
        fill: #252330;
      }
    </style>
  </defs>
  <path class="cls-4" d="m525.15,299.79c.27,6.6,4.7,12.51,10.54,13.71,3.39.7,7.14.09,10.34,1.19,2.22.76,4.4,3.17,5.34,5.37.42.99-2.04,3.53-3.58,4.94-2.06,1.89-4.49,3.36-6.76,5.01,2.49,1.46,4.94,2.99,7.48,4.36,5.69,3.07,11.37,6.2,17.18,9.04,3.07,1.5,6.38,3.38,9.63,3.48,12.14.37,24.29.09,36.44,0,1.11,0,2.21-.47,3.31-.72-.4-.34-.79-.67-1.19-1.01,2.67-4.14,4.42-10.14,8.21-12.03,6.78-3.37,13.65-7.41,20.59-9.53,6.31-1.92,13.73-1.5,20.4-3.89.94-.34,2.37.12,3.35.63,3.36,1.72,6.14,1.07,9.27-.94,5.17-3.33,11.54-2.32,16.95,2.53,2.55,2.29,4.57,5.18,6.84,7.79.61-.23,1.22-.46,1.84-.69.73-3.78,1.78-7.52,2.14-11.34,1.62-17.05,5.87-33.42,12.8-49.04,5.11-11.53,12.65-19.81,26.77-19.31,7.13.25,14.32-.23,21.43-.92,6.05-.59,10.06,1.82,12.39,7.05,2.22,4.98,5.71,6.69,11.07,6.23,5.62-.48,11.32-.09,16.97-.29,3.98-.14,6.76,1.57,8.5,4.97,2.66,5.18,5.35,10.35,7.65,15.69,1.36,3.16,3.09,4.98,6.7,4.58,1.31-.15,2.66,0,3.99,0,13.53.16,16.93,2.2,20.89,15.27,2.64,8.71,4.15,17.8,5.71,26.8.66,3.82,2.21,5.53,6.02,5.8,7.16.5,11.55,4.45,13.45,11.34,3.25,11.78,3.87,23.63.67,35.49-2.1,7.79-6.39,13.56-15.1,14.56-3.73.43-4.05,3.22-4.65,6.08-1.9,8.93-3.4,18-6.11,26.69-3.51,11.27-6.3,13.33-18.07,13.15-7.12-.11-10.97,2.15-12.92,9.1-1.33,4.74-4.01,9.12-6.23,13.59-2.2,4.41-5.73,6.62-10.82,6.6-6.49-.02-13.01.02-19.45.66-2.64.26-5.91,1.52-7.53,3.46-4.04,4.83-8.56,6.64-14.85,6.16-6.6-.5-13.32-.17-19.94.39-9.14.77-15.76-3.32-21.06-10.09-6.68-8.52-11.29-18.23-13.23-28.8-2.51-13.71-4.12-27.59-5.95-41.42-.82-6.2-1.26-12.45-2.02-20.24-2.77,2.71-4.4,4.41-6.13,5.99-10.41,9.48-15.23,21.07-13.51,35.22.2,1.64.11,3.33,0,4.99-.64,9.67,1.22,18.01,7.34,26.43,14.11,19.39,19.58,42.33,23.58,65.65,6.2,36.1,7.71,72.44,5.8,108.92-.96,18.35-4.4,36.34-11.31,53.49-3.62,8.98-6.85,9.75-14.35,3.69-1.42-1.15-2.87-2.35-3.95-3.79-10.94-14.48-25.41-25.35-38.25-37.89-6.63-6.48-12.12-14.12-18.35-21.03-1.92-2.13-4.39-4.49-7.01-5.15-9.26-2.33-15.85-7.96-20.02-16.06-3.74-7.26-9.1-12.51-15.73-16.91-7.26-4.81-10.62-12.61-14.68-19.86-2.03-3.61-3.87-7.56-6.73-10.41-7.85-7.81-12.27-17.27-15.04-27.73-.41-1.55-1.04-3.04-2.12-6.17-1.64,3.64-2.91,5.84-3.66,8.2-2.81,8.91-5.7,17.72-11.8,25.15-1.07,1.3-.75,3.95-.65,5.95.28,5.55.83,11.09,1.19,16.63.5,7.72.33,15.28,4.88,22.45,15.16,23.91,33.77,44.98,52.96,65.56,13.96,14.97,28.64,29.26,42.98,43.87,1.01,1.03,1.89,2.19,3.13,3.66-6.33,3.6-12.16,7.08-18.14,10.29-31.08,16.69-62.06,33.58-93.34,49.88-26.4,13.75-53.39,26.37-79.63,40.41-7.96,4.26-13.7,4.05-21.28-.28-17.18-9.82-34.91-18.68-52.44-27.89-26.09-13.7-52.26-27.28-78.3-41.08-15.29-8.1-30.38-16.58-45.63-24.77-4.2-2.25-8.65-4.05-12.6-5.88,10.61-10.21,21.6-19.88,31.53-30.53,25.31-27.16,50.39-54.6,70.48-86,2.78-4.35,2.76-11.18,2.3-16.73-.6-7.15-2.13-14.1.65-21.14.5-1.28.24-3.69-.65-4.56-5.84-5.62-7.49-13.2-10.11-20.35-1.51-4.14-3.34-8.16-5.03-12.23-.46.05-.92.1-1.38.14-.52,1.81-1.14,3.6-1.54,5.44-1.93,8.94-5.79,16.84-11.48,24.1-3.55,4.53-6.09,9.89-8.82,15.02-4.69,8.78-10.04,16.7-19.37,21.5-3.3,1.7-6.1,5.22-8.04,8.54-5.94,10.17-13.86,17.71-24.99,21.94-2.51.95-5.15,2.75-6.69,4.9-10.9,15.26-23.59,28.78-37.63,41.19-6.83,6.04-12.75,13.13-19.1,19.73-.92.96-1.91,1.86-2.91,2.74-6.61,5.81-8.7,5.16-12.22-2.76-7.77-17.49-10.75-35.99-11.71-54.85-1.73-34.13-.56-68.15,4.44-102.03,2.81-19.02,6.88-37.73,14.48-55.37,3.63-8.43,9.5-15.89,14.26-23.84,1.08-1.8,2.45-3.78,2.55-5.74.55-11.46.78-22.94,1.06-34.41.02-.97,0-2.22-.55-2.89-5.55-6.74-11.21-13.39-16.84-20.06-.59.13-1.18.27-1.77.4-.5,4.15-1.15,8.29-1.46,12.46-1.5,20.34-4.8,40.33-12.07,59.46-1.75,4.61-4.18,9.12-7.07,13.12-5,6.94-11.75,11.02-20.76,10.94-7.31-.06-14.64.44-21.95.8-5.49.27-9.87-1.55-12.47-6.53-1.89-3.62-4.77-4.64-8.63-4.5-5.99.23-12-.04-17.98.26-5.7.29-9.76-2.1-12.13-7.03-2.6-5.38-4.95-10.9-7.01-16.51-1.26-3.43-2.92-5.49-6.83-4.74-.32.06-.66.01-1,.01-15.45.1-17.38-.99-21.8-16.06-2.47-8.43-3.88-17.19-5.36-25.87-.67-3.94-2.11-6-6.33-5.93-5.61.1-9.56-2.67-11.52-7.91-5.3-14.2-5.87-28.58-.94-42.98,2.01-5.87,6.16-9.43,12.64-9.56,3.93-.08,5.66-1.76,6.45-5.86,1.81-9.46,3.86-18.92,6.72-28.1,3.57-11.49,6.88-13.99,18.88-13.57,7.25.26,10.87-2.13,12.85-9,2.95-10.25,8.56-17.66,20.96-15.83,1.61.24,3.35-.45,4.97-.25,7.75.99,13.83-.69,17.55-8.52.93-1.95,4.56-3.6,6.99-3.67,10.64-.31,21.31-.15,31.96.15,7,.2,11.78,4.49,15.13,10.12,2.7,4.54,5.42,9.36,6.68,14.42,4.03,16.11,7.38,32.39,10.98,48.6.29,1.3.5,2.61.86,3.89.17.61.59,1.15,1.34,2.56,2.36-2.3,4.46-4.29,6.5-6.35,5.17-5.2,10.04-6.01,16.8-3.14,1.67.71,3.86,1.03,5.6.62,5.29-1.25,10.14-1.52,14.43,2.71.77.76,2.87.99,3.93.52,6.23-2.79,11.14-.87,15.9,3.42,1.77,1.6,4.38,2.91,6.73,3.14,6.85.67,12.86,5.21,13.74,12.23.55,4.37,2.51,5.05,6.21,4.92,11.48-.39,22.97-.51,34.45-.87,1.75-.06,3.67-.51,5.19-1.35,8.84-4.93,17.6-10.03,26.36-15.11.81-.47,1.43-1.26,2.7-2.41-2.59-1.81-5.22-3.05-6.96-5.06-1.39-1.59-1.69-4.12-2.48-6.23,1.85-.46,3.8-1.53,5.54-1.27,10.18,1.51,20.77-4.95,23.16-14.87-1.91-.38-3.78-.92-5.69-1.11-35.37-3.66-68.8-13.49-99.68-31.41-3.89-2.26-7.84-4.43-11.55-6.95-2.31-1.57-4.5-3.49-6.27-5.65-5.93-7.25-2.82-15.18,6.48-16.27,8.42-.99,16.9-1.69,25.37-2.08,29.75-1.34,59.54-1.98,88.72-9,3.02-.73,4.65-1.93,5.34-4.94,1.34-5.83,3.08-11.58,4.36-17.42.75-3.44,2.17-5.94,5.86-6.49,3.38-.5,4.55-2.52,5-5.78,1.4-10.18,2.84-20.36,4.84-30.43.56-2.82,2.52-5.95,4.79-7.75,7.42-5.9,10.84-13.16,9.99-22.62-.77-8.57-.88-17.22-1.94-25.75-1.44-11.59.59-19.06,10.58-32.86-3.42-2.96-6.59-6.66-10.59-8.92-4.5-2.55-8.21.89-11.52,3.71-7.23,6.14-14.24,12.56-21.6,18.54-7.73,6.28-16,11.71-26.73,9.93-1.95-.32-4.69-1.3-5.31-2.73-.61-1.41.44-4.37,1.75-5.65,8.61-8.43,12.92-19.23,17.37-30.02,2.91-7.06,5.53-14.36,9.41-20.87,2.61-4.38,6.56-8.95,11.03-11.07,18.92-8.95,38.26-17,57.45-25.39,6.12-2.68,10.89-.57,15.15,4.02,12.67,13.64,21.93,29.4,27.61,46.98,3.31,10.25,7.3,20.03,13.25,28.91,5.03,7.51,6.16,15.25,3.44,23.74-.86,2.69-1.43,5.48-2.36,8.15-1.35,3.88-.78,7,1.41,10.74,2.25,3.83,3.54,8.7,3.69,13.17.24,7,2.2,12.61,7.89,16.88,4.76,3.58,6.06,8.51,6.4,14.42.48,8.42,2.08,16.8,3.57,25.13.29,1.64,1.95,3.65,3.5,4.35,4.36,1.97,5.91,5.41,6.81,9.72,1.09,5.2,2.37,10.39,4.1,15.4.56,1.62,2.63,3.41,4.33,3.85,22.98,5.92,46.36,8.63,70.09,9.17,15.28.35,30.55,1.7,45.81,2.78,4.38.31,8.94,2.18,9.48,6.66.39,3.19-1.29,8.09-3.76,9.91-8.9,6.59-18.05,13.16-27.95,17.99-27.72,13.53-57.14,21.81-87.76,25.73-1.09.14-2.14.61-3.13.91Zm-180.68-220.41c-1.21,2.18-2.43,4.36-4.29,7.7,2.52-.79,3.75-.87,4.58-1.49,7.19-5.33,14.45-10.58,21.39-16.22,4.51-3.66,8.71-7.76,12.66-12.02,1.67-1.8,2.43-4.49,3.46-6.83.47-1.07.59-2.3,1.12-4.46,2.06,2.48,3.45,4.08,4.75,5.74,4.68,5.96,7.51,5.79,10.59-1.26,3.31-7.58,8.38-13.65,14.65-18.96-1.02,3.71-2.39,7.25-3.68,10.81-1.64,4.53-3.65,8.98-4.71,13.64-1.29,5.67.73,7.62,6.46,7.49,2.89-.07,5.77-.01,8.76-.01-3.86,4.49-7.99,8.48-11.13,13.13-6.02,8.89-8.64,18.86-7.73,29.69.65,7.76,1.69,15.55,1.47,23.3-.33,11.83-2.19,23.24-13.2,30.87-1.85,1.28-2.5,4.86-2.93,7.51-1.23,7.52-2.09,15.11-3.01,22.68-.2,1.67-.03,3.4-.03,5.61,4.18-.65,7.59-1.27,11.02-1.68,30.22-3.61,60.51-2.39,90.79-1.07,7.59.33,8.08.09,6.79-7.6-.88-5.29-3.42-10.48-3.37-15.69.06-6.15-1.91-10.42-6.37-14.29-3.41-2.96-6.41-6.49-5.45-11.64,2.21-11.82-2.51-19.9-13.07-25.23-3.22-1.63-5.93-4.29-8.87-6.48.33-.69.65-1.37.98-2.06,2.65.84,5.46,1.37,7.9,2.61,2.64,1.34,4.52,1.16,5.71-1.54,3.74-8.48,5.49-16.87.92-25.89-5.85-11.57-10.76-23.61-16.53-35.22-6.44-12.93-13.34-25.63-20.15-38.38-2.2-4.12-5.56-4.68-9.75-2.79-15.02,6.78-29.96,13.74-45.2,20.01-9.77,4.02-16.21,10.69-20.03,20.28-1.6,4.02-3.24,8.03-5.02,11.97-1.84,4.09-3.88,8.09-5.83,12.13m56.18,319.58c-.52-.56-1.04-1.12-1.56-1.67-2.47,1.11-5.12,1.93-7.37,3.38-18.35,11.85-25.55,29.61-27.46,50.62-1.68,18.48,4.74,35.04,10.52,51.83,1.78,5.16,4.33,10.08,6.82,14.97.96,1.89,2.73,3.37,4.14,5.04l1.54-.49v-12.91c.54-.04,1.09-.08,1.63-.12,8.81,17.05,15.9,34.65,16.49,54.59,1.62-1.31,2.83-2.58,3.01-3.98.89-7.02,2.97-14.31,1.9-21.08-1.68-10.75-4.8-21.43-8.63-31.65-5.15-13.76-6.83-27.72-5.46-42.16.3-3.18,1.36-6.29,2.3-10.42.62,1.73.89,2.83,1.03,2.81,2.54-.29,3.85.63,3.77,3.33-.18,6.3-.64,12.63-.35,18.91.64,13.7,5.88,26.19,10.72,38.79,4.28,11.15,6.8,22.61,4.62,34.66-2.21,12.23-6.51,23.12-18.57,29.07-1.02.51-2.02,1.07-3.03,1.61.28.64.56,1.27.85,1.91,2.32.22,4.68.84,6.94.59,10.33-1.13,18.53-5.98,24.47-14.59,1.38-2,2.96-3.87,4.45-5.79.54,2.27.18,3.87-.4,5.38-5.26,13.83-10.19,27.79-16.05,41.36-1.92,4.44-6.24,7.84-9.52,11.68-1.14,1.34-2.43,2.54-3.65,3.81.24.63.48,1.25.72,1.88,2.71,0,5.51.45,8.11-.08,8.57-1.74,15.03-6.29,19.41-14.2,5.06-9.14,10.58-18.06,16.4-26.74,9.01-13.42,16.27-27.6,18.77-43.67,2.39-15.36,8.46-29.35,14.72-43.32.6-1.35,1.71-2.47,2.58-3.69.43.14.86.29,1.29.43,0,2.68.52,5.49-.11,8.02-1.32,5.31-3.38,10.44-4.86,15.72-.74,2.63-.87,5.43-1.28,8.15.58.14,1.16.28,1.74.42,3.1-5.99,6.65-11.8,9.23-18.02,8.56-20.65,16.51-41.52,14.37-64.56-1.47-15.88-7.16-30.02-17.93-41.95-4.14-4.59-9.16-7.08-14.9-7.2,3.96,12.02,7.97,23.42,11.39,35.01,1.29,4.39,1.54,9.19,1.56,13.81.01,2.12-1.66,4.25-2.84,6.99-1.35-1.51-1.83-1.83-1.97-2.25-.39-1.27-.64-2.58-.96-3.87-2.48-9.8-4.34-19.81-7.63-29.33-3.58-10.39-8.39-20.42-17.81-27.12-1.76-1.25-4-1.82-6.02-2.7-.08,2.44.53,3.58,1.07,4.76,6.25,13.74,7.79,28.11,5.6,42.93-.26,1.77-1.49,3.4-2.26,5.1-.46-.17-.92-.35-1.38-.52-.99-9.49-1.55-19.04-3.1-28.44-1.58-9.6-5.85-18.14-13.41-26.37-1.46,6.41-11.03,6.89-8.03,15.14.13.37-.25.94-.43,1.41-4.66,12.44-5.44,25.27-3.96,38.36.16,1.44-.26,2.96-.42,4.44-.64.14-1.28.29-1.92.43-1.03-2.55-2.84-5.07-2.94-7.65-.33-9.11-.79-18.33.2-27.35.76-6.94,3.62-13.65,5.9-21.72-2.56.73-4.79.8-6.21,1.9-2.85,2.22-5.72,4.68-7.76,7.61-10.11,14.48-15.18,30.95-18.43,48.1-.33,1.76-.96,3.46-1.45,5.19-.63,0-1.26-.02-1.89-.02-.42-2.43-1.25-4.86-1.2-7.27.26-13.72,3.96-26.58,10.27-38.71,1.49-2.86,3.05-5.68,4.57-8.52Zm194.67-148.58c-2.11-.18-4.21-.43-6.32-.53-8.47-.4-16.98-.41-25.41-1.2-11.9-1.12-23.72-2.96-35.61-4.19-4.75-.49-9.84-1.13-14.35,0-17.52,4.34-35.23,6.72-53.23,7.95-35.5,2.41-70.46.05-104.81-9.63-2-.56-4.38-.76-6.36-.26-23.6,5.98-47.72,6.36-71.83,7.42-11.94.53-23.83,2.32-35.72,3.7-1.26.15-2.4,1.35-3.59,2.06.8,1.15,1.41,2.52,2.45,3.4.97.83,2.34,1.29,3.6,1.65,8.64,2.45,17.2,5.35,25.98,7.13,31.62,6.42,63.25,12.79,94.99,18.57,47.33,8.62,94.89,6.91,142.19.35,26.32-3.65,52.32-9.77,78.31-15.47,14.43-3.17,28.56-7.72,42.77-11.81,1.97-.57,3.66-2.11,5.47-3.19-.18-.6-.36-1.2-.53-1.81m-429.99,169.01c-.81,11.28-1.43,22.57-2.37,33.84-1.38,16.56-3.1,33.08-4.46,49.64-1.09,13.27,5.84,23.22,14.27,32.32,3.41,3.68,6.94,3.16,9.11-1.48,1.88-4.02,3.48-8.37,4.1-12.74,2.86-20.08,5.71-40.17,7.84-60.34,1.58-15.03,2.78-30.18,2.66-45.27-.05-6.01.96-9.76,5.49-13.44,6.52-5.3,10.32-12.53,7.23-20.78-4.31-11.53-4.51-22.07,2.61-32.54,2.25-3.3-.1-5.85-3.14-7.7-3.17-1.93-5.25-.72-7.13,1.94-2.69,3.8-5.31,7.67-8.32,11.2-.79.93-2.9.73-4.4,1.05-.12-1.37-.77-2.98-.27-4.06,1.39-3.01,3.22-5.81,4.93-8.66,1.66-2.78,3.5-5.17-.54-7.93-3.84-2.62-6.44-1.82-8.83,1.53-3.19,4.46-6.08,9.16-9.51,13.43-1.23,1.52-3.66,2.07-5.55,3.06.25-1.95-.01-4.18.85-5.81,2.23-4.21,4.97-8.16,7.43-12.11-5.49-5.78-9.33-5.63-13.42.14-3.65,5.16-7.23,10.38-11.09,15.37-.77.99-2.71,1.09-4.11,1.59-.43-1.46-1.58-3.18-1.16-4.31.92-2.43,2.59-4.59,4.06-6.79,2.26-3.37,4.62-6.68,6.9-9.95-5.29-4.19-8.07-4.39-11.23-.09-4.81,6.54-8.93,13.57-13.46,20.32-3.76,5.61-2.87,10.62,1.65,15.26,9.04,9.28,18.02,18.61,27.19,27.76m442.91,15.9,29.94-18.93c8.31-8.15,16.63-16.3,24.79-24.6,3.42-3.48,5.06-8.25,2.53-12.39-5.08-8.31-10.89-16.2-16.8-23.97-2.08-2.74-5.36-3.2-8.76-.09.99,1.9,1.93,3.98,3.11,5.91,2.25,3.69,4.86,7.19,6.87,11,.75,1.43.23,3.53.29,5.33-1.55-.66-3.58-.9-4.58-2.04-4.17-4.75-8-9.79-12.03-14.67-1.47-1.79-2.88-4.33-4.79-4.87-2.33-.66-5.16.43-7.77.76.4,1.89.35,4.05,1.28,5.62,1.94,3.28,4.51,6.18,6.61,9.37,1.03,1.56,1.59,3.43,2.4,5.25-4.92,1.32-5.61,1.26-8.25-2.08-3.6-4.56-7.01-9.28-10.47-13.96-2.77-3.75-5.04-3.77-9.62-.29-3.69,2.8-.54,4.49.92,6.43,1.5,1.99,3.3,3.78,4.65,5.86,1.62,2.48,4.96,5.16,1.77,8.03-.71.64-5.29-2.06-7.27-4.04-2.79-2.79-4.93-6.26-7.16-9.58-2.06-3.07-4.35-3.56-7.61-1.8-3.27,1.77-4.15,4.11-2.73,7.41,1.78,4.12,3.49,8.29,5.48,12.31,2.07,4.19,2.47,8.21-.06,12.33-.52.84-.82,1.82-1.18,2.75-4,10.4-2.17,17.97,5.67,25.92,2.45,2.48,5.63,5.7,5.79,8.73.75,14.26.13,28.6.83,42.86.75,15.27,1.61,30.62,3.99,45.68,1.86,11.73,5.77,23.19,9.48,34.54,1.76,5.41,5.5,6.1,9.62,2.15,3.17-3.03,6-6.75,7.94-10.67,4.8-9.7,5.6-20.22,4-30.75-3.58-23.47-4.05-47.06-3.46-70.72m73.91,51.02c11.86,4.39,22.86.97,28.9-9.48,2.73-4.73,5.43-9.75,6.7-14.99,3.67-15.17,7.54-30.39,9.64-45.82,4.12-30.3,4.86-60.68-2.36-90.79-4.01-16.72-8.54-33.18-17.88-47.94-2.87-4.53-6.39-6.38-11.61-5.72-5.44.7-10.93,1-16.37,1.7-2.1.27-4.51.63-6.11,1.83-7.48,5.66-13.95,12.06-17.3,21.32-5.88,16.26-8.68,33.09-10.41,50.17-.3,2.96-.68,6.06-.13,8.92.33,1.72,2.41,3.11,3.7,4.65,1.04-1.45,2.68-2.78,3.01-4.38.72-3.56.81-7.26,1.12-10.91,1.29-15.32,3.89-30.35,9.8-44.66,2.24-5.41,5.53-9.75,10.87-12.52,3.11-1.62,5.63-1.24,7.3,1.62,2.33,4,4.7,8.08,6.22,12.42,8.21,23.52,11.09,47.96,10.85,72.69-.16,16.1-1.32,32.25-3.06,48.27-1.51,13.89-4.73,27.57-11.11,40.22-3.95,7.85-11.28,8.69-17.04,1.9-1.9-2.25-3.66-4.91-4.52-7.69-2.66-8.55-5.45-17.13-7.08-25.91-1.94-10.44-2.57-21.12-4.15-31.64-.26-1.7-2.5-3.1-3.82-4.64-.95,1.82-2.19,3.55-2.76,5.48-.4,1.35.04,2.97.2,4.45.88,8.44,1.69,16.88,2.69,25.31,1.86,15.61,4.83,30.88,13.21,44.62m-585.37,8.92c5.82.03,10.05-1.75,12.68-6.95,2.4-4.74,5.36-9.32,6.97-14.32,6.57-20.4,10.35-41.3,9.5-62.83-.06-1.57-1.92-3.08-2.95-4.61-.89,1.49-2.32,2.89-2.59,4.49-2.85,16.37-5.19,32.83-8.39,49.13-1.1,5.57-3.45,11.29-6.69,15.91-2.19,3.12-6.87,5.97-10.57,6.15-4.36.21-7.26-4.21-8.55-8.61-2.43-8.3-5.24-16.54-6.96-24.99-7.09-34.76-7.51-69.75-1.82-104.72,2.33-14.29,5.84-28.41,12.92-41.26,3.29-5.98,6.45-6.4,11.48-1.83,1.93,1.75,3.8,3.92,4.81,6.27,2.22,5.17,4.61,10.44,5.62,15.92,2.72,14.71,4.7,29.56,7.15,44.32.25,1.48,1.74,2.76,2.65,4.13,1.34-1.22,3.18-2.2,3.9-3.72.72-1.52.67-3.62.37-5.37-2.58-15.08-5.04-30.18-8.05-45.17-2.31-11.53-8.03-21.45-16.44-29.71-1.23-1.21-3-2.29-4.66-2.55-4.25-.68-8.58-1.17-12.88-1.2-18.71-.12-18.83-.11-26.67,17.19-10.92,24.1-13.59,49.94-15.14,75.89-1.24,20.85.57,41.64,4.34,62.12,3.25,17.66,7.51,35.11,16.07,51.26,3.89,7.34,8.56,10.92,16.98,8.44m316.25-102.59c0,.1,0,.21,0,.31,49.77,0,99.53.03,149.3-.02,8.82,0,17.64-.36,26.46-.52,3.74-.07,6.44-.84,6.21-5.62-.4-8.59-.8-9.52-6.57-9.62-12.65-.22-25.3-.52-37.94-.5-45.75.07-91.51.33-137.26.38-19.96.02-39.93-.47-59.89-.43-37.45.09-74.9.36-112.35.64-9.13.07-10.08,1.32-9.54,10.13.2,3.26,1.58,4.94,4.84,5.02,3.83.08,7.65.21,11.48.21,55.09.01,110.18,0,165.27,0Zm-344.91,91.83c-13.66-31.23-18.31-63.03-17.57-95.75.74-32.48,3.2-64.72,16.71-94.99-.75-.41-1.16-.81-1.6-.85-17.05-1.35-21.14,1.77-26.54,18.11-8.41,25.43-10.9,51.71-11.66,78.2-.69,23.8,3.36,47.12,9.31,70.06,1.86,7.17,5.29,13.96,8.35,20.78.8,1.78,2.79,4.11,4.41,4.25,5.88.51,11.83.2,18.6.2Zm694.1.08c4.4.33,8.33.63,12.26.93,4.53.35,7.7-1.5,9.48-5.72,1.81-4.29,4.01-8.44,5.44-12.85,7.11-21.98,10.21-44.68,11.51-67.67,1.94-34.25-3-67.34-17.09-98.81-3.7-8.26-15.38-11.34-22.89-6.86,23.49,63.26,23.29,126.46,1.3,190.98Zm-332.75,154.4c-.19,2.27-.38,3.58-.4,4.9-.25,15.31-.62,30.62-.67,45.93-.14,42.62-.15,85.24-.19,127.86,0,1.49-.15,3.1.35,4.44.36.97,1.66,2.2,2.59,2.25,5.94.31,12.26-5.92,12.22-11.78-.25-40.28-.5-80.57-.77-120.85-.1-15.32-.22-30.63-.41-45.95-.03-2.56.38-5.72-3.42-6.19-2.91-.36-5.87-.39-9.31-.6Zm-45.73,20.44c-.25,8.8-.69,18.38-.76,27.97-.35,42.92-.62,85.85-.82,128.77,0,1.47.55,3.67,1.59,4.3,3.88,2.35,8.06,4.18,12.69,6.48v-168.93c-4.48.5-7.92.88-12.69,1.41ZM46.04,407.74c-3.33-37.43-.39-74.36,7.66-111.27-11.98-2.68-14.96-1.29-18.03,10.02-6.85,25.19-11.07,50.83-8,76.95,1.7,14.47,5.01,28.78,8.29,43.01,1.55,6.71,7.77,9.26,14.03,6.75.68-.27,1.05-2.88.58-3.97m780.79,4.51c6.83,2.09,10.55.14,13.23-6.64,1.1-2.78,2.28-5.61,2.73-8.53,1.98-12.79,4.37-25.57,5.4-38.45,2.11-26.42.05-52.5-9.35-77.59-3.04-8.1-7.59-9.77-16.65-6.08,9.68,39.96,12.25,80.1,6.37,120.8m-242.36-39.69c1.07,2.74,1.65,4.42,2.37,6.03,4.93,11,8.64,22.25,9.09,34.49.08,2.29,2.19,5.18,4.2,6.62,7.48,5.35,8.56,7.79,6.23,16.3-.37,1.37-.38,3.8.41,4.34,2.62,1.82,5.63,3.98,8.6,4.16,3.02.18,10.87-11.48,10.79-15.02-.17-7.97-.42-15.95-.94-23.9-.12-1.84-1.11-3.88-2.29-5.35-5.86-7.29-10.63-14.88-9.88-24.84.08-1.11-1.58-3.37-2.45-3.38-8.42-.04-16.83.29-26.13.53Zm-323.85,67.05c-.25-.94-.31-1.45-.52-1.88-5.51-11.21-5.08-12.71,6.27-18.13,3.15-1.5,4.02-3.77,3.76-6.8-.91-10.48,2.09-20.05,6.6-29.29,1.57-3.22,3.2-6.42,5.63-11.29-9.24,0-17,.12-24.76-.05-3.72-.08-4.86,1.38-4.8,5.02.14,8.48-2.43,15.94-8.71,22.08-1.86,1.82-3.51,4.8-3.59,7.3-.27,8.46-.1,16.97.52,25.42.43,5.82,4.1,10.19,8.01,14.16,4.17-2.35,7.76-4.36,11.59-6.52Zm187.79,157.73c2.73.38,4.16.72,5.6.75,20.64.38,40.63-3.4,60.26-9.43,4.73-1.45,7.47-3.98,6.12-9.52-.45-1.82.3-3.93.43-5.91.15-2.17.22-4.35.35-7.13-2.01.67-3.1.95-4.13,1.39-16.45,6.89-33.35,12.29-51.11,14.41-9.2,1.1-12.53,8.09-17.52,15.45Zm-50.97-.2c.64,0,1.81-.05,2.97,0,4.52.25,6.71-1.79,6.99-6.38.29-4.73-2.82-4.58-6.07-5.21-5.67-1.11-11.48-2.19-16.8-4.35-12.3-4.99-24.32-10.66-36.5-15.97-3.65-1.59-5.2-.36-4.98,3.82.17,3.14.95,6.31.7,9.4-.34,4.27,1.57,6.37,5.26,7.86,15.39,6.21,31.31,9.99,48.44,10.83Zm113.67-155.52c.62.09,1.23.19,1.85.28.81-2.27,2.1-4.49,2.37-6.82,2.41-20.84-6.04-38.69-15.97-56.02-2.52-4.4-6.67-6.8-11.99-6.85-10.31-.1-20.62-.3-30.93-.42-.56,0-1.12.4-2.93,1.08,2.92,1.76,4.82,3.26,6.98,4.13,5.71,2.29,11.58,4.17,17.28,6.46,3.21,1.29,7.04,2.33,9.18,4.74,11.97,13.46,22.01,28,22.88,46.96.1,2.17.83,4.3,1.28,6.45Zm-103.26-68.64c-.23-.63-.47-1.27-.7-1.9-1.45-.07-2.91-.25-4.35-.2-8.65.3-17.29.79-25.93.93-4.99.08-8.49,1.74-10.59,6.57-1.38,3.17-3.58,5.99-5.5,8.91-7.58,11.59-11.71,24.29-11.54,38.13.07,5.96,1.4,11.9,2.16,17.85.72-.03,1.44-.07,2.15-.1.3-2.69.45-5.41.92-8.07,4.44-25.54,14.47-46.91,41.37-55.96,4.22-1.42,8.02-4.07,12.01-6.16Zm-6.62-58.38c9.24.2,17.75-8,17.89-17.24.08-5.6-3.03-9.04-8.68-9.39-5.14-.31-10.33-.18-15.43-.79-8.26-.98-13.28,4.05-11.89,12.36,1.39,8.32,9.25,14.86,18.11,15.05Zm61.13-26.73c-3.64,0-6.96.09-10.27-.03-3.39-.12-5.29,1.6-6.13,4.66-1.83,6.68-.31,12.52,4.86,17.17,5.62,5.05,14.17,6.44,20.41,2.99,5.98-3.3,8.94-8.85,9-15.59.07-6.89-3.38-9.91-10.26-9.66-2.65.1-5.29.31-7.62.45Zm-16.03,30.22c-6.77,2.12-6.88-2.51-7.55-6.69-.29-1.79-.8-3.55-1.18-5.33-.7-3.27-2.29-5.27-6.05-5.29-3.65-.02-4.55,2.38-5.81,5.04-1.88,3.95-4.27,7.66-6.34,11.52-.59,1.1-1.27,2.43-1.15,3.57.61,5.8,8.67,13.44,13.8,13.32,5.48-.12,13.94-9.12,14.28-16.15Zm-308.53,64.47c.32-.64.65-1.28.97-1.92-.57-1.51-1.36-2.98-1.68-4.54-2.61-12.67-7.88-25.53,2.56-37.4.55-.63-.02-3.25-.87-3.93-3.31-2.65-6.43-1.53-9.29,1.19-9.76,9.27-9.9,34.22-.21,43.67.36.35.68.85,1.11.98,2.46.7,4.94,1.31,7.41,1.95Zm589.36-1.4c2.45,3.74,5.61,3.7,8.15,1.3,2.58-2.43,5.19-5.46,6.27-8.72,3.01-9.11,3.54-18.59,1.19-27.98-1.3-5.19-4.28-9.54-9.58-11.29-1.59-.52-4.08.45-5.56,1.54-.53.39.48,3.27,1.19,4.83,1.21,2.67,3.37,5.05,4.04,7.82,2.74,11.42,1.68,22.35-5.69,32.5Zm-236.43-75.31c-4.05,5.91-4.38,10.7-2.64,15.63,1.65,4.69,4.3,9.15,5.21,13.96,1.11,5.87,4.16,7.34,9.38,6.53,1.77-.27,3.55-.41,6.27-.71-3.19-13.42-10.32-23.99-18.21-35.41Zm-127.56,36.87c2.53-1.55,6.15-2.51,7.39-4.77,3.17-5.76,5.59-12.01,7.65-18.27.84-2.56.7-5.92-.23-8.47-1.58-4.35-3.97-4.52-6.43-.57-4.82,7.71-9.56,15.5-13.8,23.53-3.31,6.27-2.39,7.33,5.42,8.55ZM7.63,362.63c1.06,7.05,1.76,13.65,3.23,20.07.35,1.52,3.28,2.44,5.03,3.64.73-1.72,2.07-3.44,2.09-5.17.06-5.44-.73-10.9-.51-16.33.24-5.95,1.32-11.87,1.82-17.81.11-1.27-.45-3.56-1.14-3.74-1.39-.37-3.38-.05-4.55.79-1.39.99-2.71,2.7-3.12,4.33-1.21,4.77-1.96,9.66-2.84,14.22Zm854.73,24.35c.51.31,1.02.62,1.54.93,1.83-1.76,4.53-3.19,5.35-5.34,4.57-11.94,4.2-24.01-.58-35.83-1.05-2.59-3.21-4.65-6.31-3.44v43.68Zm-147.45-32.45c-1.39,5.53-2.61,10.4-3.86,15.35.39.22.81.66,1.22.67,4.31.04,8.62.02,12.92-.02,6.84-.06,7.28-.51,7.35-7.37.01-1.16.02-2.33-.07-3.48-.32-4.14-2.28-6.43-6.74-5.99-3.76.36-7.54.59-10.83.85Zm-551.13-.31c-3.32,0-7.41-.15-11.48.05-3.33.16-5.27,2.11-4.99,5.53.3,3.79-.98,9.07,4.14,10.03,5.31,1,10.96.22,16.21.22-1.3-5.31-2.45-9.99-3.88-15.82Zm229.39-27.98c-4.52,6.72-8.6,12.79-12.96,19.26,4.61,1.53,7.81,1.55,10.39-1.7,5.61-7.06,13.11-10.99,21.67-13.24,1.63-.43,3.15-1.27,4.72-1.91-.09-.41-.19-.82-.28-1.22-7.85.18-15.91,6.36-23.53-1.19Zm35.42,20.76c-2.12-6.13-5.91-9.88-10.42-9.72-7.59.28-14.09,3.22-19.06,9.72h29.48Zm49.4-.31c-5.59-6.77-12.15-9.27-19.5-9.92-3.08-.27-8.62,5.37-9.92,9.92h29.42Zm15.18,1.23c.42-.58.85-1.17,1.27-1.75-.29-5.61-3.12-10.2-6.4-14.59-2.29-3.07-4.71-4.93-8.74-2.14-1.36.94-3.82.56-5.73.38-2.57-.25-5.1-.9-7.64-1.38.34,1.14.92,1.83,1.58,1.93,9.13,1.35,14.99,6.77,19.45,14.53.95,1.65,4.09,2.05,6.21,3.02Zm-129.69,31.17c-6.5-1.14-8.01-.05-8.78,4.92-.6,3.92-1.59,7.79-2.29,11.7-.3,1.65-.3,3.34-.44,5.02.57.16,1.13.32,1.7.49,4.69-6.54,7.68-13.88,9.8-22.12Zm158.63,26.46c.76-.16,1.52-.31,2.29-.47-.25-3.19-.31-6.42-.79-9.58-.73-4.72-1.48-9.48-2.83-14.04-.36-1.21-2.87-1.92-4.53-2.49-.26-.09-1.94,2.03-1.72,2.76,2.39,7.98,5.02,15.89,7.58,23.82Z"/>
  <path class="cls-1" d="m404.34,393.29c-1.53,2.84-3.09,5.66-4.57,8.52-6.31,12.14-10.01,24.99-10.27,38.71-.05,2.42.78,4.85,1.2,7.27.63,0,1.26.02,1.89.02.49-1.73,1.11-3.43,1.45-5.19,3.25-17.15,8.32-33.63,18.43-48.1,2.05-2.93,4.92-5.4,7.76-7.61,1.42-1.11,3.65-1.17,6.21-1.9-2.28,8.07-5.14,14.78-5.9,21.72-.99,9.02-.53,18.24-.2,27.35.09,2.58,1.91,5.1,2.94,7.65.64-.14,1.28-.29,1.92-.43.15-1.48.58-2.99.42-4.44-1.48-13.09-.7-25.92,3.96-38.36.17-.47.56-1.04.43-1.41-3.01-8.25,6.56-8.72,8.03-15.14,7.56,8.22,11.83,16.77,13.41,26.37,1.55,9.39,2.11,18.95,3.1,28.44.46.17.92.35,1.38.52.78-1.7,2-3.33,2.26-5.1,2.19-14.82.64-29.19-5.6-42.93-.54-1.18-1.15-2.33-1.07-4.76,2.02.88,4.26,1.45,6.02,2.7,9.42,6.7,14.23,16.73,17.81,27.12,3.28,9.52,5.14,19.53,7.63,29.33.33,1.29.57,2.6.96,3.87.13.42.62.73,1.97,2.25,1.18-2.74,2.85-4.87,2.84-6.99-.02-4.62-.27-9.42-1.56-13.81-3.41-11.58-7.43-22.99-11.39-35.01,5.74.11,10.76,2.61,14.9,7.2,10.78,11.93,16.46,26.08,17.93,41.95,2.14,23.03-5.8,43.91-14.37,64.56-2.58,6.21-6.13,12.02-9.23,18.02-.58-.14-1.16-.28-1.74-.42.41-2.72.54-5.52,1.28-8.15,1.48-5.28,3.54-10.4,4.86-15.72.63-2.52.11-5.34.11-8.02-.43-.14-.86-.29-1.29-.43-.87,1.23-1.97,2.35-2.58,3.69-6.27,13.97-12.33,27.96-14.72,43.32-2.5,16.07-9.77,30.24-18.77,43.67-5.82,8.68-11.34,17.6-16.4,26.74-4.38,7.91-10.84,12.46-19.41,14.2-2.6.53-5.4.08-8.11.08-.24-.63-.48-1.25-.72-1.88,1.22-1.27,2.51-2.47,3.65-3.81,3.27-3.84,7.6-7.24,9.52-11.68,5.86-13.57,10.79-27.54,16.05-41.36.58-1.52.94-3.12.4-5.38-1.49,1.93-3.07,3.79-4.45,5.79-5.94,8.61-14.14,13.45-24.47,14.59-2.26.25-4.62-.37-6.94-.59-.28-.64-.56-1.27-.85-1.91,1.01-.54,2-1.11,3.03-1.61,12.06-5.95,16.36-16.84,18.57-29.07,2.18-12.05-.34-23.51-4.62-34.66-4.84-12.6-10.08-25.09-10.72-38.79-.29-6.29.17-12.61.35-18.91.08-2.71-1.23-3.62-3.77-3.33-.14.02-.41-1.08-1.03-2.81-.94,4.13-2,7.24-2.3,10.42-1.37,14.45.3,28.4,5.46,42.16,3.83,10.22,6.94,20.9,8.63,31.65,1.06,6.77-1.01,14.05-1.9,21.08-.18,1.4-1.39,2.67-3.01,3.98-.59-19.94-7.68-37.54-16.49-54.59-.54.04-1.09.08-1.63.12v12.91l-1.54.49c-1.4-1.67-3.17-3.15-4.14-5.04-2.49-4.88-5.05-9.8-6.82-14.97-5.78-16.79-12.2-33.35-10.52-51.83,1.91-21.01,9.11-38.76,27.46-50.62,2.25-1.45,4.9-2.27,7.37-3.38.52.56,1.04,1.12,1.56,1.67Zm45.33,150.05c.78.44,1.57.88,2.36,1.33,2.49-3.25,5.89-6.14,7.32-9.8,6.4-16.4,12.87-32.82,18.05-49.63,3.41-11.07,2.83-22.75-1.34-33.85-.52-1.39-2.34-2.3-3.56-3.43-.42,1.58-1.18,3.15-1.21,4.73-.16,8.62.55,17.32-.34,25.85-1.76,16.92-8.95,32.23-15.44,47.73-2.32,5.53-3.91,11.37-5.83,17.06Zm-5.78-23.76c4.92-1.38,9.2-11.16,10.94-24.95,1.37-10.81-1.03-20-5.07-22.38-1.91,15.41-3.87,31.24-5.87,47.33Z"/>
  <path class="cls-3" d="m348.16,73.71c1.95-4.04,3.98-8.04,5.83-12.13,1.78-3.94,3.42-7.95,5.02-11.97,3.82-9.6,10.26-16.26,20.03-20.28,15.23-6.27,30.18-13.23,45.2-20.01,4.19-1.89,7.55-1.32,9.75,2.79,6.81,12.74,13.71,25.45,20.15,38.38,5.78,11.61,10.68,23.65,16.53,35.22,4.57,9.03,2.81,17.41-.92,25.89-1.19,2.71-3.07,2.88-5.71,1.54-2.45-1.24-5.26-1.77-7.9-2.61-.33.69-.65,1.37-.98,2.06,2.94,2.19,5.64,4.85,8.87,6.48,10.56,5.33,15.28,13.41,13.07,25.23-.96,5.15,2.03,8.68,5.45,11.64,4.46,3.87,6.43,8.13,6.37,14.29-.05,5.22,2.48,10.41,3.37,15.69,1.28,7.69.8,7.93-6.79,7.6-30.28-1.32-60.57-2.54-90.79,1.07-3.43.41-6.84,1.04-11.02,1.68,0-2.22-.17-3.94.03-5.61.92-7.57,1.78-15.16,3.01-22.68.43-2.65,1.08-6.23,2.93-7.51,11.01-7.62,12.86-19.04,13.2-30.87.22-7.75-.82-15.54-1.47-23.3-.91-10.83,1.72-20.8,7.73-29.69,3.15-4.65,7.28-8.64,11.13-13.13-2.99,0-5.88-.05-8.76.01-5.73.13-7.75-1.82-6.46-7.49,1.06-4.66,3.07-9.11,4.71-13.64,1.29-3.56,2.66-7.1,3.68-10.81-6.27,5.31-11.33,11.38-14.65,18.96-3.08,7.04-5.91,7.22-10.59,1.26-1.31-1.67-2.7-3.27-4.75-5.74-.53,2.16-.65,3.39-1.12,4.46-1.03,2.35-1.79,5.03-3.46,6.83-3.95,4.26-8.15,8.36-12.66,12.02-6.94,5.64-14.2,10.89-21.39,16.22-.83.62-2.06.7-4.58,1.49,1.86-3.34,3.07-5.52,4.29-7.7,1.23-1.89,2.45-3.78,3.68-5.67Z"/>
  <path class="cls-3" d="m637,248.83c.18.6.36,1.2.53,1.81-1.82,1.09-3.51,2.63-5.47,3.19-14.22,4.09-28.35,8.64-42.77,11.81-25.99,5.71-52,11.83-78.31,15.47-47.3,6.55-94.86,8.26-142.19-.35-31.74-5.78-63.37-12.15-94.99-18.57-8.78-1.78-17.34-4.69-25.98-7.13-1.27-.36-2.63-.82-3.6-1.65-1.03-.88-1.65-2.25-2.45-3.4,1.2-.71,2.33-1.91,3.59-2.06,11.89-1.38,23.78-3.17,35.72-3.7,24.11-1.06,48.24-1.44,71.83-7.42,1.98-.5,4.36-.3,6.36.26,34.35,9.68,69.31,12.05,104.81,9.63,18-1.22,35.71-3.6,53.23-7.95,4.51-1.12,9.6-.48,14.35,0,11.89,1.22,23.72,3.06,35.61,4.19,8.43.8,16.94.8,25.41,1.2,2.11.1,4.21.35,6.32.53"/>
  <path class="cls-1" d="m204.36,392.29c-9.17-9.15-18.15-18.48-27.19-27.76-4.52-4.64-5.42-9.65-1.65-15.26,4.52-6.75,8.65-13.78,13.46-20.32,3.17-4.31,5.94-4.1,11.23.09-2.28,3.28-4.63,6.58-6.9,9.95-1.47,2.2-3.14,4.36-4.06,6.79-.43,1.13.72,2.86,1.16,4.31,1.4-.51,3.34-.6,4.11-1.59,3.87-4.99,7.44-10.22,11.09-15.37,4.09-5.77,7.93-5.92,13.42-.14-2.47,3.95-5.2,7.9-7.43,12.11-.86,1.63-.6,3.86-.85,5.81,1.88-.99,4.32-1.54,5.55-3.06,3.43-4.26,6.32-8.96,9.51-13.43,2.39-3.35,4.99-4.15,8.83-1.53,4.04,2.76,2.21,5.15.54,7.93-1.71,2.85-3.54,5.65-4.93,8.66-.5,1.08.15,2.69.27,4.06,1.5-.32,3.61-.12,4.4-1.05,3.01-3.54,5.63-7.4,8.32-11.2,1.88-2.66,3.96-3.87,7.13-1.94,3.04,1.85,5.39,4.39,3.14,7.7-7.13,10.47-6.92,21.01-2.61,32.54,3.08,8.24-.71,15.48-7.23,20.78-4.53,3.68-5.54,7.43-5.49,13.44.12,15.09-1.08,30.24-2.66,45.27-2.13,20.17-4.97,40.26-7.84,60.34-.62,4.36-2.22,8.72-4.1,12.74-2.17,4.64-5.7,5.16-9.11,1.48-8.43-9.1-15.36-19.05-14.27-32.32,1.36-16.56,3.07-33.08,4.46-49.64.94-11.27,1.56-22.56,2.37-33.84m8.32-19.31"/>
  <path class="cls-1" d="m672.69,421.16c-.6,23.66-.12,47.25,3.46,70.72,1.6,10.53.8,21.06-4,30.75-1.94,3.92-4.77,7.64-7.94,10.67-4.12,3.95-7.86,3.25-9.62-2.15-3.7-11.35-7.62-22.81-9.48-34.54-2.38-15.06-3.24-30.42-3.99-45.68-.7-14.27-.08-28.6-.83-42.86-.16-3.02-3.34-6.25-5.79-8.73-7.84-7.95-9.67-15.52-5.67-25.92.36-.93.66-1.91,1.18-2.75,2.53-4.12,2.14-8.14.06-12.33-1.99-4.02-3.7-8.19-5.48-12.31-1.42-3.3-.54-5.64,2.73-7.41,3.26-1.77,5.55-1.27,7.61,1.8,2.22,3.31,4.36,6.79,7.16,9.58,1.98,1.98,6.56,4.67,7.27,4.04,3.19-2.87-.15-5.55-1.77-8.03-1.36-2.08-3.15-3.87-4.65-5.86-1.46-1.94-4.61-3.63-.92-6.43,4.58-3.47,6.85-3.46,9.62.29,3.46,4.67,6.86,9.4,10.47,13.96,2.64,3.34,3.32,3.41,8.25,2.08-.81-1.82-1.38-3.69-2.4-5.25-2.1-3.19-4.66-6.1-6.61-9.37-.93-1.57-.88-3.73-1.28-5.62,2.61-.33,5.44-1.42,7.77-.76,1.91.54,3.32,3.09,4.79,4.87,4.03,4.88,7.86,9.92,12.03,14.67,1,1.14,3.02,1.38,4.58,2.04-.06-1.8.47-3.9-.29-5.33-2-3.82-4.61-7.31-6.87-11-1.18-1.93-2.12-4.01-3.11-5.91,3.39-3.12,6.68-2.65,8.76.09,5.9,7.77,11.71,15.66,16.8,23.97,2.53,4.14.89,8.91-2.53,12.39-8.16,8.3-16.48,16.45-24.79,24.6"/>
  <path class="cls-3" d="m725.18,460.99c8.26,10.89,26.69,19.22,44.84,8.12l5.47-6.57c2.73-4.73,5.43-9.75,6.7-14.99,3.67-15.17,7.54-30.39,9.64-45.82,4.12-30.3,4.86-60.68-2.36-90.79-4.01-16.72-8.54-33.18-17.88-47.94-2.87-4.53-6.39-6.38-11.61-5.72-5.44.7-10.93,1-16.37,1.7-2.1.27-4.51.63-6.11,1.83-7.48,5.66-13.95,12.06-17.3,21.32-5.88,16.26-8.68,33.09-10.41,50.17-.3,2.96-.68,6.06-.13,8.92.33,1.72,2.41,3.11,3.7,4.65,1.04-1.45,2.68-2.78,3.01-4.38.72-3.56.81-7.26,1.12-10.91,1.29-15.32,3.89-30.35,9.8-44.66,2.24-5.41,5.53-9.75,10.87-12.52,3.11-1.62,5.63-1.24,7.3,1.62,2.33,4,4.7,8.08,6.22,12.42,8.21,23.52,11.09,47.96,10.85,72.69-.16,16.1-1.32,32.25-3.06,48.27-1.51,13.89-4.73,27.57-11.11,40.22-3.95,7.85-11.28,8.69-17.04,1.9-1.9-2.25-3.66-4.91-4.52-7.69-2.66-8.55-5.45-17.13-7.08-25.91-1.94-10.44-2.57-21.12-4.15-31.64-.26-1.7-2.5-3.1-3.82-4.64-.95,1.82-2.19,3.55-2.76,5.48-.4,1.35.04,2.97.2,4.45.88,8.44,1.69,16.88,2.69,25.31,1.61,13.5,4.04,26.74,10.09,38.96"/>
  <path class="cls-3" d="m122.79,472.81c-8.42,2.48-13.09-1.1-16.98-8.44-8.56-16.15-12.82-33.6-16.07-51.26-3.77-20.48-5.58-41.27-4.34-62.12,1.55-25.95,4.22-51.79,15.14-75.89,7.84-17.3,7.97-17.31,26.67-17.19,4.3.03,8.63.52,12.88,1.2,1.66.26,3.43,1.34,4.66,2.55,8.41,8.25,14.12,18.18,16.44,29.71,3.01,14.99,5.47,30.1,8.05,45.17.3,1.75.35,3.85-.37,5.37-.72,1.51-2.55,2.5-3.9,3.72-.91-1.37-2.4-2.65-2.65-4.13-2.46-14.76-4.43-29.61-7.15-44.32-1.01-5.47-3.4-10.75-5.62-15.92-1.01-2.36-2.88-4.52-4.81-6.27-5.03-4.57-8.19-4.14-11.48,1.83-7.08,12.85-10.59,26.98-12.92,41.26-5.69,34.97-5.27,69.95,1.82,104.72,1.72,8.45,4.53,16.69,6.96,24.99,1.29,4.41,4.19,8.83,8.55,8.61,3.7-.18,8.38-3.04,10.57-6.15,3.24-4.62,5.6-10.34,6.69-15.91,3.2-16.3,5.55-32.76,8.39-49.13.28-1.6,1.7-3,2.59-4.49,1.02,1.54,2.89,3.04,2.95,4.61.85,21.53-2.93,42.43-9.5,62.83-1.61,5-4.57,9.58-6.97,14.32-2.63,5.2-4.62,8.69-10.44,8.65"/>
  <path class="cls-2" d="m439.04,370.21c-55.09,0-110.18,0-165.27,0-3.83,0-7.65-.13-11.48-.21-3.26-.07-4.64-1.76-4.84-5.02-.54-8.81.41-10.06,9.54-10.13,37.45-.28,74.9-.55,112.35-.64,19.96-.05,39.93.45,59.89.43,45.75-.05,91.51-.31,137.26-.38,12.65-.02,25.3.28,37.94.5,5.77.1,6.17,1.03,6.57,9.62.22,4.78-2.47,5.55-6.21,5.62-8.82.16-17.64.51-26.46.52-49.77.05-99.53.02-149.3.02,0-.1,0-.21,0-.31Z"/>
  <path class="cls-3" d="m94.13,462.04c-6.77,0-12.72.31-18.6-.2-1.61-.14-3.61-2.47-4.41-4.25-3.06-6.81-6.49-13.6-8.35-20.78-5.95-22.94-10-46.26-9.31-70.06.77-26.49,3.25-52.77,11.66-78.2,5.41-16.34,9.49-19.45,26.54-18.11.44.03.84.43,1.6.85-13.52,30.27-15.97,62.51-16.71,94.99-.75,32.72,3.91,64.52,17.57,95.75Z"/>
  <path class="cls-3" d="m788.23,462.12c21.99-64.52,22.19-127.72-1.3-190.98,7.51-4.48,19.19-1.4,22.89,6.86,14.1,31.46,19.03,64.56,17.09,98.81-1.3,22.98-4.4,45.68-11.51,67.67-1.43,4.41-3.63,8.57-5.44,12.85-1.78,4.22-4.95,6.07-9.48,5.72-3.93-.31-7.87-.6-12.26-.93Z"/>
  <path class="cls-2" d="m455.48,616.52c3.45.21,6.4.24,9.31.6,3.8.47,3.39,3.63,3.42,6.19.2,15.32.31,30.63.41,45.95.27,40.28.51,80.57.77,120.85.04,5.86-6.28,12.09-12.22,11.78-.93-.05-2.23-1.28-2.59-2.25-.5-1.34-.36-2.95-.35-4.44.04-42.62.05-85.24.19-127.86.05-15.31.42-30.62.67-45.93.02-1.31.21-2.63.4-4.9Z"/>
  <path class="cls-2" d="m409.75,636.96c4.76-.53,8.21-.91,12.69-1.41v168.93c-4.62-2.3-8.81-4.13-12.69-6.48-1.04-.63-1.59-2.82-1.59-4.3.2-42.92.47-85.85.82-128.77.08-9.59.52-19.17.76-27.97Z"/>
  <path class="cls-3" d="m50.58,429.21c.47,1.1.1,3.7-.58,3.97-6.26,2.51-12.48-.03-14.03-6.75-3.29-14.22-6.59-28.54-8.29-43.01-3.07-26.12,1.15-51.76,8-76.95,3.07-11.3,6.05-12.7,18.03-10.02-8.05,36.91-10.99,73.84-7.66,111.27"/>
  <path class="cls-3" d="m833.1,417.24c5.88-40.7,3.3-80.84-6.37-120.8,9.06-3.69,13.62-2.02,16.65,6.08,9.4,25.09,11.46,51.17,9.35,77.59-1.03,12.88-3.41,25.66-5.4,38.45-.45,2.92-1.64,5.75-2.73,8.53-2.67,6.78-6.4,8.73-13.23,6.64"/>
  <path class="cls-2" d="m454.69,602.33c4.99-7.36,8.32-14.35,17.52-15.45,17.76-2.12,34.66-7.52,51.11-14.41,1.03-.43,2.12-.72,4.13-1.39-.13,2.77-.2,4.95-.35,7.13-.13,1.98-.88,4.09-.43,5.91,1.36,5.54-1.39,8.07-6.12,9.52-19.64,6.03-39.63,9.81-60.26,9.43-1.44-.03-2.88-.37-5.6-.75Z"/>
  <path class="cls-2" d="m403.72,602.13c-17.12-.84-33.04-4.62-48.44-10.83-3.68-1.49-5.6-3.59-5.26-7.86.25-3.09-.53-6.26-.7-9.4-.23-4.18,1.32-5.42,4.98-3.82,12.17,5.31,24.2,10.98,36.5,15.97,5.32,2.16,11.12,3.24,16.8,4.35,3.25.64,6.36.49,6.07,5.21-.28,4.59-2.47,6.63-6.99,6.38-1.16-.06-2.33,0-2.97,0Z"/>
  <path class="cls-1" d="m517.39,446.62c-.44-2.15-1.18-4.29-1.28-6.45-.87-18.96-10.91-33.5-22.88-46.96-2.14-2.41-5.97-3.45-9.18-4.74-5.71-2.29-11.57-4.18-17.28-6.46-2.16-.87-4.06-2.37-6.98-4.13,1.81-.68,2.37-1.09,2.93-1.08,10.31.12,20.62.32,30.93.42,5.32.05,9.47,2.45,11.99,6.85,9.92,17.33,18.37,35.18,15.97,56.02-.27,2.33-1.56,4.55-2.37,6.82-.62-.09-1.23-.19-1.85-.28Z"/>
  <path class="cls-1" d="m414.13,377.98c-3.99,2.08-7.79,4.74-12.01,6.16-26.9,9.05-36.93,30.41-41.37,55.96-.46,2.66-.62,5.38-.92,8.07-.72.03-1.44.07-2.15.1-.76-5.95-2.09-11.89-2.16-17.85-.17-13.84,3.97-26.54,11.54-38.13,1.91-2.92,4.12-5.74,5.5-8.91,2.1-4.83,5.59-6.49,10.59-6.57,8.65-.14,17.29-.63,25.93-.93,1.45-.05,2.9.13,4.35.2.23.63.47,1.27.7,1.9Z"/>
  <path class="cls-1" d="m407.51,319.6c-8.86-.19-16.72-6.72-18.11-15.05-1.39-8.31,3.63-13.35,11.89-12.36,5.1.61,10.29.48,15.43.79,5.64.35,8.76,3.78,8.68,9.39-.14,9.24-8.65,17.43-17.89,17.24Z"/>
  <path class="cls-1" d="m468.63,292.87c2.32-.14,4.97-.35,7.62-.45,6.88-.26,10.33,2.76,10.26,9.66-.07,6.73-3.02,12.29-9,15.59-6.24,3.44-14.79,2.06-20.41-2.99-5.18-4.65-6.69-10.49-4.86-17.17.84-3.06,2.73-4.78,6.13-4.66,3.31.12,6.63.03,10.27.03Z"/>
  <path class="cls-1" d="m452.61,323.09c-.34,7.03-8.8,16.03-14.28,16.15-5.13.11-13.19-7.53-13.8-13.32-.12-1.14.56-2.48,1.15-3.57,2.07-3.86,4.46-7.57,6.34-11.52,1.26-2.66,2.16-5.07,5.81-5.04,3.75.02,5.35,2.02,6.05,5.29.38,1.78.89,3.54,1.18,5.33.67,4.18.78,8.81,7.55,6.69Z"/>
  <path class="cls-2" d="m151.11,398.6c-3.58-.93-7.18-1.81-10.73-2.82-.62-.18-1.09-.91-1.61-1.41-14.03-13.68-13.82-49.79.3-63.21,4.14-3.93,8.65-5.57,13.45-1.72,1.24.99,2.06,4.78,1.26,5.69-15.11,17.18-7.47,35.79-3.7,54.13.47,2.26,1.61,4.39,2.44,6.57-.47.93-.94,1.85-1.4,2.78Z"/>
  <path class="cls-2" d="m733.44,386.16c7.37-10.15,8.44-21.08,5.69-32.5-.66-2.77-2.82-5.15-4.04-7.82-.71-1.56-1.72-4.44-1.19-4.83,1.48-1.1,3.97-2.06,5.56-1.54,5.3,1.74,8.28,6.1,9.58,11.29,2.35,9.39,1.82,18.87-1.19,27.98-1.08,3.27-3.69,6.29-6.27,8.72-2.54,2.4-5.7,2.44-8.15-1.3Z"/>
  <path class="cls-1" d="m497.01,310.85c7.89,11.41,15.02,21.99,18.21,35.41-2.71.3-4.5.43-6.27.71-5.23.81-8.27-.66-9.38-6.53-.91-4.81-3.55-9.27-5.21-13.96-1.74-4.93-1.4-9.71,2.64-15.63Z"/>
  <path class="cls-1" d="m369.45,347.73c-7.81-1.22-8.73-2.29-5.42-8.55,4.25-8.03,8.98-15.82,13.8-23.53,2.47-3.95,4.85-3.77,6.43.57.93,2.55,1.07,5.92.23,8.47-2.07,6.27-4.49,12.51-7.65,18.27-1.24,2.26-4.85,3.22-7.39,4.77Z"/>
  <path class="cls-3" d="m7.63,362.63c.88-4.56,1.63-9.45,2.84-14.22.42-1.63,1.73-3.34,3.12-4.33,1.17-.84,3.17-1.16,4.55-.79.69.18,1.25,2.47,1.14,3.74-.5,5.95-1.58,11.86-1.82,17.81-.22,5.43.57,10.89.51,16.33-.02,1.73-1.36,3.45-2.09,5.17-1.74-1.2-4.68-2.12-5.03-3.64-1.47-6.43-2.17-13.03-3.23-20.07Z"/>
  <path class="cls-3" d="m862.36,386.98v-43.68c3.1-1.21,5.26.85,6.31,3.44,4.78,11.82,5.15,23.89.58,35.83-.82,2.15-3.52,3.58-5.35,5.34-.51-.31-1.02-.62-1.54-.93Z"/>
  <path class="cls-2" d="m714.9,354.54c3.29-.25,7.07-.48,10.83-.85,4.46-.43,6.42,1.85,6.74,5.99.09,1.16.08,2.32.07,3.48-.07,6.86-.52,7.32-7.35,7.37-4.31.04-8.62.05-12.92.02-.42,0-.83-.44-1.22-.67,1.25-4.95,2.47-9.82,3.86-15.35Z"/>
  <path class="cls-2" d="m163.77,354.22c1.43,5.83,2.58,10.52,3.88,15.82-5.25,0-10.9.77-16.21-.22-5.11-.96-3.83-6.24-4.14-10.03-.27-3.42,1.67-5.37,4.99-5.53,4.07-.19,8.15-.05,11.48-.05Z"/>
  <path class="cls-1" d="m393.16,326.24c7.62,7.55,15.68,1.37,23.53,1.19.09.41.19.82.28,1.22-1.57.65-3.09,1.49-4.72,1.91-8.56,2.25-16.06,6.18-21.67,13.24-2.58,3.24-5.79,3.22-10.39,1.7,4.36-6.48,8.44-12.55,12.96-19.26Z"/>
  <path class="cls-1" d="m428.58,347h-29.48c4.97-6.5,11.47-9.44,19.06-9.72,4.51-.16,8.3,3.59,10.42,9.72Z"/>
  <path class="cls-1" d="m477.99,346.69h-29.42c1.3-4.54,6.84-10.19,9.92-9.92,7.35.64,13.91,3.15,19.5,9.92Z"/>
  <path class="cls-1" d="m493.17,347.92c-2.13-.97-5.27-1.37-6.21-3.02-4.46-7.76-10.33-13.18-19.45-14.53-.66-.1-1.24-.79-1.58-1.93,2.55.48,5.08,1.13,7.64,1.38,1.92.19,4.37.57,5.73-.38,4.03-2.79,6.45-.93,8.74,2.14,3.27,4.39,6.1,8.98,6.4,14.59-.42.58-.85,1.17-1.27,1.75Z"/>
  <path class="cls-1" d="m363.48,379.09c-2.13,8.24-5.11,15.58-9.8,22.12-.57-.16-1.13-.32-1.7-.49.14-1.67.14-3.37.44-5.02.7-3.91,1.69-7.77,2.29-11.7.76-4.98,2.28-6.07,8.78-4.92Z"/>
  <path class="cls-1" d="m522.1,405.55c-2.56-7.93-5.2-15.84-7.58-23.82-.22-.73,1.46-2.84,1.72-2.76,1.65.57,4.17,1.27,4.53,2.49,1.35,4.56,2.11,9.32,2.83,14.04.49,3.16.54,6.38.79,9.58-.76.16-1.52.31-2.29.47Z"/>
  <path d="m449.68,543.35c1.92-5.7,3.51-11.53,5.83-17.06,6.49-15.49,13.68-30.81,15.44-47.73.89-8.54.18-17.23.34-25.85.03-1.58.79-3.15,1.21-4.73,1.22,1.13,3.04,2.03,3.56,3.43,4.17,11.1,4.75,22.78,1.34,33.85-5.18,16.8-11.65,33.23-18.05,49.63-1.43,3.66-4.82,6.55-7.32,9.8-.78-.44-1.57-.88-2.36-1.33Z"/>
  <path d="m443.9,519.58c1.99-16.09,3.96-31.91,5.87-47.33,4.04,2.38,6.44,11.56,5.07,22.38-1.74,13.8-6.01,23.57-10.94,24.95Z"/>
</svg>