<svg width="30" height="30" viewBox="0 0 30 30" fill="none" xmlns="http://www.w3.org/2000/svg">
<g clip-path="url(#clip0_145_128)">
<path fill-rule="evenodd" clip-rule="evenodd" d="M0 0H30V30H0V0Z" fill="#229E45"/>
<path fill-rule="evenodd" clip-rule="evenodd" d="M15.3164 23.7539L28.7813 15.0117L15.2344 6.24609L1.7168 15.0352L15.3105 23.7539H15.3164Z" fill="#F8E509"/>
<path fill-rule="evenodd" clip-rule="evenodd" d="M21.1818 15.0001C21.2055 15.763 21.0756 16.5229 20.7998 17.2346C20.524 17.9463 20.108 18.5953 19.5764 19.1431C19.0448 19.6908 18.4086 20.1262 17.7055 20.4232C17.0023 20.7202 16.2467 20.8729 15.4834 20.8721C14.7201 20.8713 13.9648 20.7171 13.2623 20.4186C12.5597 20.1202 11.9244 19.6835 11.394 19.1347C10.8635 18.5858 10.4488 17.9359 10.1745 17.2237C9.90016 16.5114 9.77181 15.7512 9.79706 14.9883C9.84599 13.5103 10.4679 12.1092 11.5313 11.0815C12.5948 10.0537 14.0162 9.47993 15.4951 9.48145C16.974 9.48297 18.3943 10.0597 19.4556 11.0896C20.5169 12.1195 21.1359 13.5219 21.1818 15.0001Z" fill="#2B49A3"/>
<path fill-rule="evenodd" clip-rule="evenodd" d="M13.6113 18.4102L13.4355 18.3047L13.2539 18.3984L13.2949 18.1934L13.1543 18.0469L13.3535 18.0234L13.4473 17.8359L13.5352 18.0293L13.7344 18.0645L13.582 18.2051M17.4316 19.377L17.2559 19.2715L17.0684 19.3652L17.1094 19.1602L16.9688 19.0137L17.1738 18.9902L17.2676 18.8027L17.3496 18.9961L17.5488 19.0313L17.4023 19.1719M15.7852 17.8301L15.6328 17.7422L15.4746 17.8184L15.5098 17.6426L15.3926 17.5137L15.5625 17.4961L15.6445 17.3379L15.7148 17.502L15.8906 17.5313L15.7617 17.6484M19.6406 17.2734L19.4883 17.1855L19.3359 17.2617L19.3711 17.0918L19.2539 16.9688L19.4238 16.9453L19.5 16.793L19.5762 16.9512L19.7461 16.9805L19.6172 17.0977M15.7148 16.1191L15.5391 16.0137L15.3574 16.1074L15.3984 15.9023L15.2578 15.7559L15.457 15.7324L15.5508 15.5508L15.6387 15.7383L15.8379 15.7734L15.6855 15.9141M11.0156 14.3555L10.8398 14.25L10.6641 14.3438L10.6992 14.1387L10.5586 13.9922L10.7637 13.9687L10.8574 13.7812L10.9395 13.9746L11.1387 14.0098L10.9922 14.1504M11.584 16.6992L11.4082 16.5996L11.2266 16.6875L11.2676 16.4883L11.127 16.3359L11.3262 16.3125L11.4199 16.1367L11.5078 16.3184L11.707 16.3594L11.5547 16.4941M17.4492 13.4883L17.2969 13.4004L17.1328 13.4766L17.168 13.3008L17.0508 13.166L17.2266 13.1484L17.3086 12.9844L17.3848 13.1543L17.5605 13.1836L17.4258 13.3066M17.1328 15.0176L16.9922 14.9414L16.8691 15L16.8926 14.8594L16.7988 14.7598L16.9395 14.7422L17.0039 14.6133L17.0625 14.748L17.2031 14.7715L17.0977 14.8652M10.7461 17.1211L10.6289 17.0508L10.5059 17.1094L10.5293 16.9746L10.4355 16.875L10.5762 16.8633L10.6348 16.7461L10.6934 16.8633L10.8281 16.8926L10.7285 16.9863M19.6699 17.6602L19.5703 17.6133L19.4707 17.6543L19.4941 17.5547L19.418 17.4785L19.5293 17.4668L19.582 17.3789L19.623 17.4727L19.7344 17.4902L19.6523 17.5605" fill="#FFFFEF"/>
<path fill-rule="evenodd" clip-rule="evenodd" d="M10.752 17.127L10.6348 17.0566L10.5117 17.1152L10.541 16.9805L10.4414 16.8809L10.5762 16.8691L10.6406 16.752L10.6992 16.8691L10.834 16.8984L10.7344 16.9922" fill="#FFFFEF"/>
<path fill-rule="evenodd" clip-rule="evenodd" d="M10.752 17.127L10.6348 17.0566L10.5117 17.1152L10.541 16.9805L10.4414 16.8809L10.5762 16.8691L10.6406 16.752L10.6992 16.8691L10.834 16.8984L10.7344 16.9922M12.6211 17.127L12.5039 17.0566L12.3867 17.1152L12.4102 16.9805L12.3164 16.8809L12.4512 16.8691L12.5098 16.7461L12.5684 16.8691L12.7031 16.8984L12.6035 16.9922M12.3867 17.7539L12.2695 17.6836L12.1523 17.7422L12.1758 17.6074L12.082 17.5078L12.2168 17.4902L12.2754 17.373L12.334 17.4902L12.4688 17.5195L12.3691 17.6133M16.2773 16.6172L16.1602 16.5469L16.0371 16.6055L16.0605 16.4707L15.9668 16.3711L16.1016 16.3594L16.166 16.2363L16.2246 16.3594L16.3535 16.3828L16.2539 16.4766M15.1348 16.6172L15.0176 16.5469L14.8945 16.6055L14.9238 16.4707L14.8301 16.3711L14.9648 16.3594L15.0234 16.2363L15.082 16.3594L15.2168 16.3828L15.1172 16.4766M12.041 16.2187L11.9707 16.1777L11.8945 16.2129L11.9062 16.125L11.8477 16.0664L11.9355 16.0547L11.9766 15.9785L12.0059 16.0605L12.0937 16.0723L12.0352 16.1309M19.5234 18.1641L19.4063 18.0996L19.2832 18.1582L19.3125 18.0234L19.2187 17.9238L19.3535 17.9063L19.4121 17.7891L19.4707 17.9063L19.6055 17.9355L19.5059 18.0293M18.5684 18.2871L18.4746 18.2285L18.375 18.2871L18.3984 18.1699L18.3164 18.0879L18.4336 18.0762L18.4805 17.9766L18.5273 18.0762L18.6445 18.0996L18.5566 18.1758M19.0254 18.2812L18.9316 18.2227L18.8379 18.2754L18.8555 18.1699L18.7852 18.0937L18.8906 18.082L18.9375 17.9883L18.9785 18.082L19.084 18.0996L19.0078 18.1758M20.3086 17.1562L20.2207 17.1035L20.127 17.1504L20.1504 17.0508L20.0801 16.9746L20.1797 16.9629L20.2266 16.875L20.2676 16.9688L20.3672 16.9863L20.291 17.0566M18.5742 18.9199L18.457 18.8555L18.3398 18.9141L18.3691 18.7852L18.2754 18.6973L18.4043 18.6797L18.4688 18.5684L18.5273 18.6855L18.6504 18.709L18.5566 18.791M18.5801 19.4297L18.4746 19.3711L18.3691 19.4238L18.3926 19.2949L18.3105 19.207L18.4277 19.1895L18.4863 19.0781L18.5332 19.1953L18.6504 19.2187L18.5625 19.3008M17.7129 18.2812L17.625 18.2285L17.5313 18.2754L17.5547 18.1699L17.4844 18.0996L17.584 18.0879L17.6309 17.9941L17.6719 18.0879L17.7715 18.1055L17.6953 18.1758M16.9043 18.2812L16.8164 18.2285L16.7227 18.2754L16.7461 18.1699L16.6758 18.0996L16.7754 18.0879L16.8223 17.9941L16.8633 18.0879L16.9629 18.1055L16.8926 18.1758M15.5273 17.0742L15.4395 17.0215L15.3457 17.0684L15.3691 16.9688L15.2988 16.8926L15.3984 16.8809L15.4453 16.793L15.4863 16.8867L15.5859 16.9043L15.5098 16.9688M15.6797 19.5176L15.6035 19.4766L15.5273 19.5176L15.5449 19.4297L15.4863 19.3711L15.5684 19.3535L15.6094 19.2773L15.6445 19.3594L15.7324 19.3711L15.668 19.4297M13.6055 15.5625L13.4297 15.4629L13.248 15.5508L13.2891 15.3516L13.1484 15.1992L13.3477 15.1758L13.4414 14.9941L13.5293 15.1816L13.7285 15.2168L13.5762 15.3574" fill="#FFFFEF"/>
<path fill-rule="evenodd" clip-rule="evenodd" d="M20.8066 17.0508C20.9169 16.7635 21.0031 16.4676 21.0645 16.166C18.041 13.5059 14.666 12.1406 10.4004 12.4219C10.2476 12.7205 10.1221 13.0323 10.0254 13.3535C11.9823 13.1559 13.9588 13.3834 15.8196 14.0205C17.6804 14.6577 19.3816 15.6893 20.8066 17.0449V17.0508Z" fill="white"/>
<path d="M19.4473 15.5508L19.5527 15.6094C19.5363 15.642 19.5322 15.6794 19.541 15.7148C19.5469 15.7383 19.5703 15.7676 19.5996 15.7852C19.6348 15.8086 19.6641 15.8203 19.6934 15.8203C19.7168 15.8203 19.7402 15.8027 19.752 15.7852C19.7578 15.7734 19.7637 15.7617 19.7578 15.7441L19.7402 15.6973L19.6699 15.6211C19.6326 15.5831 19.6045 15.537 19.5879 15.4863C19.5776 15.4482 19.5815 15.4077 19.5987 15.3722C19.6159 15.3366 19.6454 15.3085 19.6816 15.293C19.7129 15.2791 19.7476 15.275 19.7812 15.2812C19.8236 15.2905 19.8635 15.3084 19.8984 15.334C19.9492 15.3697 19.9897 15.4182 20.0156 15.4746C20.0227 15.5006 20.0238 15.5278 20.0187 15.5542C20.0136 15.5806 20.0025 15.6055 19.9863 15.627L19.8809 15.5625C19.8926 15.5332 19.8984 15.5039 19.8926 15.4805C19.8867 15.4629 19.8633 15.4395 19.834 15.4219C19.8047 15.3984 19.7754 15.3926 19.752 15.3926C19.7452 15.3928 19.7385 15.3945 19.7324 15.3975C19.7264 15.4005 19.721 15.4049 19.7168 15.4102C19.7127 15.4161 19.7101 15.4229 19.7091 15.43C19.7081 15.4371 19.7087 15.4443 19.7109 15.4512C19.7109 15.4746 19.7402 15.5098 19.7812 15.5508L19.8691 15.668C19.8851 15.6971 19.8925 15.7302 19.8904 15.7634C19.8884 15.7966 19.8769 15.8285 19.8574 15.8555C19.837 15.8845 19.8084 15.9069 19.7754 15.9199C19.7405 15.9359 19.7015 15.94 19.6641 15.9316C19.6196 15.9203 19.5778 15.9004 19.541 15.873C19.4857 15.8398 19.4441 15.7878 19.4238 15.7266C19.4062 15.6738 19.4121 15.6152 19.4473 15.5508V15.5508ZM18.9316 15.2168L19.0488 15.2754C19.0351 15.3046 19.031 15.3374 19.0371 15.3691C19.043 15.3984 19.0664 15.4277 19.0957 15.4453C19.1309 15.4688 19.1602 15.4746 19.1895 15.4688C19.2129 15.4688 19.2363 15.457 19.248 15.4336C19.2536 15.4228 19.2557 15.4105 19.2539 15.3984C19.2539 15.3809 19.248 15.3691 19.2305 15.3516L19.1602 15.2754C19.1216 15.2395 19.0915 15.1955 19.0723 15.1465C19.0645 15.1232 19.062 15.0985 19.0651 15.0742C19.0681 15.0498 19.0766 15.0265 19.0898 15.0059C19.1072 14.9801 19.1316 14.9597 19.1602 14.9473C19.1915 14.9338 19.2261 14.9297 19.2598 14.9355C19.2949 14.9355 19.3301 14.9531 19.377 14.9824C19.4355 15.0234 19.4824 15.0645 19.4941 15.1172C19.5029 15.1423 19.5059 15.169 19.5028 15.1954C19.4998 15.2218 19.4908 15.2471 19.4766 15.2695L19.3652 15.2051C19.3828 15.1758 19.3828 15.1465 19.377 15.1289C19.3652 15.1055 19.3477 15.0879 19.3184 15.0703C19.2932 15.0509 19.2622 15.0406 19.2305 15.041C19.2232 15.0419 19.2162 15.0445 19.2101 15.0485C19.204 15.0526 19.1989 15.0581 19.1953 15.0645C19.1922 15.0708 19.1906 15.0779 19.1906 15.085C19.1906 15.0921 19.1922 15.0991 19.1953 15.1055C19.1953 15.123 19.2246 15.1582 19.2656 15.2051C19.3125 15.2461 19.3418 15.2871 19.3594 15.3105C19.3774 15.3398 19.3865 15.3737 19.3854 15.4081C19.3844 15.4425 19.3733 15.4758 19.3535 15.5039C19.3336 15.5343 19.3052 15.5582 19.2719 15.5728C19.2387 15.5873 19.2019 15.5919 19.166 15.5859C19.12 15.577 19.0762 15.5591 19.0371 15.5332C18.981 15.5021 18.9374 15.4524 18.9141 15.3926C18.8974 15.3339 18.9037 15.271 18.9316 15.2168ZM18.2988 15.041L18.627 14.5137L19.0195 14.748L18.9609 14.8418L18.6797 14.666L18.6035 14.7832L18.873 14.9473L18.8145 15.041L18.5508 14.877L18.4629 15.0234L18.7559 15.1992L18.7031 15.293L18.2988 15.0469V15.041ZM17.373 14.2852L17.4258 14.1914L17.6602 14.3203L17.5488 14.5371C17.4538 14.5582 17.3545 14.5458 17.2676 14.502C17.2152 14.4748 17.1707 14.4344 17.1387 14.3848C17.1077 14.34 17.0913 14.2868 17.0918 14.2324C17.0918 14.1738 17.1094 14.1211 17.1387 14.0684C17.1657 14.0142 17.206 13.9679 17.2559 13.9336C17.2969 13.8984 17.3555 13.8809 17.4141 13.8809C17.4551 13.8809 17.5078 13.8984 17.5605 13.9219C17.6183 13.949 17.6656 13.9943 17.6953 14.0508C17.7187 14.0977 17.7246 14.1504 17.7129 14.209L17.5898 14.1738C17.5965 14.1441 17.5923 14.1129 17.5781 14.0859C17.5625 14.0572 17.5378 14.0345 17.5078 14.0215C17.487 14.0086 17.4637 14.0004 17.4394 13.9973C17.4152 13.9943 17.3905 13.9965 17.3672 14.0039C17.3262 14.0215 17.2852 14.0625 17.25 14.1211C17.2214 14.175 17.2112 14.2367 17.2207 14.2969C17.2324 14.3438 17.2617 14.3789 17.3145 14.4023L17.3906 14.4258H17.4668L17.502 14.3555L17.373 14.2852V14.2852ZM13.3418 13.2891L13.4355 12.668L13.623 12.6973L13.6699 13.1367L13.8457 12.7266L14.0273 12.7559L13.9395 13.377L13.8223 13.3594L13.8926 12.873L13.6992 13.3418L13.582 13.3242L13.5293 12.8145L13.459 13.3066L13.3418 13.2891V13.2891ZM12.7148 13.2129L12.7734 12.5918L13.2305 12.6328L13.2246 12.7383L12.8848 12.709L12.873 12.8438L13.1836 12.873L13.1777 12.9785L12.8672 12.9492L12.8496 13.125L13.1953 13.1543L13.1836 13.2598L12.7148 13.2129V13.2129Z" fill="#309E3A"/>
<path d="M10.6291 12.8203C10.6291 12.7617 10.6408 12.7031 10.6584 12.6621L10.7169 12.5801L10.8048 12.5215C10.8481 12.5066 10.894 12.5006 10.9396 12.5039C10.9803 12.5036 11.0205 12.5118 11.0579 12.528C11.0952 12.5441 11.1287 12.5679 11.1564 12.5977C11.215 12.6563 11.2326 12.7324 11.2326 12.832C11.2326 12.9375 11.1974 13.0137 11.1447 13.0664C11.1153 13.0949 11.0804 13.1169 11.042 13.131C11.0037 13.1451 10.9628 13.1511 10.922 13.1485C10.8818 13.1495 10.8418 13.1422 10.8045 13.1271C10.7672 13.112 10.7334 13.0893 10.7052 13.0606C10.6763 13.0294 10.6545 12.9923 10.6413 12.9518C10.6281 12.9113 10.624 12.8684 10.6291 12.8262V12.8203Z" fill="#309E3A"/>
<path d="M10.7578 12.8203C10.7578 12.8906 10.7695 12.9492 10.8047 12.9844C10.834 13.0254 10.875 13.043 10.9219 13.043C10.9458 13.0434 10.9696 13.039 10.9918 13.0299C11.0139 13.0208 11.034 13.0073 11.0508 12.9902C11.0801 12.9551 11.0977 12.9023 11.1035 12.832C11.1035 12.7559 11.0918 12.7031 11.0566 12.668C11.0424 12.6504 11.0246 12.6361 11.0044 12.626C10.9842 12.6159 10.962 12.6102 10.9395 12.6094C10.8809 12.6094 10.8398 12.627 10.8105 12.6621C10.7754 12.6973 10.7578 12.75 10.752 12.8203H10.7578Z" fill="#F7FFFF"/>
<path d="M11.3672 13.1484L11.373 12.5215H11.6367C11.707 12.5215 11.7539 12.5332 11.7832 12.5449C11.8125 12.5566 11.8418 12.5742 11.8535 12.6035C11.8652 12.6328 11.8828 12.6621 11.8828 12.7031C11.8828 12.75 11.8652 12.7852 11.8418 12.8203C11.8125 12.8496 11.7715 12.8672 11.7129 12.8789C11.7422 12.8906 11.7656 12.9082 11.7832 12.9258L11.8535 13.0312L11.9297 13.1484H11.7773L11.6895 13.0137C11.668 12.981 11.6445 12.9497 11.6191 12.9199C11.6094 12.9095 11.5973 12.9015 11.584 12.8965C11.5651 12.8897 11.5454 12.8858 11.5254 12.8848H11.4961V13.1484H11.3672V13.1484Z" fill="#309E3A"/>
<path d="M11.4961 12.7852H11.5898C11.6288 12.79 11.6681 12.79 11.707 12.7852L11.7363 12.7559C11.748 12.7441 11.7539 12.7266 11.7539 12.709C11.7539 12.6855 11.748 12.668 11.7363 12.6562C11.724 12.6431 11.7074 12.6348 11.6895 12.6328H11.502V12.7852H11.4961Z" fill="white"/>
<path d="M12.082 12.5508L12.3105 12.5625C12.3502 12.5631 12.3896 12.569 12.4277 12.5801C12.4611 12.5927 12.4912 12.6127 12.5156 12.6387C12.543 12.6711 12.563 12.7091 12.5742 12.75C12.5859 12.791 12.5859 12.8379 12.5859 12.8965C12.5877 12.9413 12.5797 12.9861 12.5625 13.0275C12.5453 13.069 12.5193 13.1063 12.4863 13.1367C12.4629 13.1543 12.4336 13.1719 12.3984 13.1836H12.2812L12.0469 13.1777L12.082 12.5508V12.5508Z" fill="#309E3A"/>
<path d="M12.1992 12.6621L12.1816 13.0723L12.2754 13.084H12.3516L12.4043 13.0547C12.4219 13.043 12.4277 13.0254 12.4395 12.9961L12.457 12.8789L12.4512 12.7734C12.4395 12.7441 12.4336 12.7266 12.416 12.7148C12.4004 12.6976 12.38 12.6853 12.3574 12.6797C12.3246 12.6728 12.2913 12.6689 12.2578 12.668H12.1992V12.6621Z" fill="white"/>
<path d="M15.1465 13.6699L15.293 13.0605L15.4863 13.1074C15.5625 13.125 15.6094 13.1426 15.6328 13.1543C15.6621 13.1719 15.6914 13.1953 15.7031 13.2305C15.7207 13.2715 15.7207 13.3125 15.709 13.3594C15.7038 13.3896 15.6908 13.4179 15.6713 13.4416C15.6517 13.4652 15.6264 13.4833 15.5977 13.4941C15.5775 13.5041 15.5556 13.51 15.5332 13.5117C15.4896 13.5079 15.4464 13.5001 15.4043 13.4883L15.3223 13.4707L15.2637 13.6992L15.1465 13.6699V13.6699Z" fill="#309E3A"/>
<path d="M15.3867 13.1953L15.3457 13.3711L15.416 13.3828C15.4629 13.3945 15.498 13.4004 15.5156 13.3945C15.5318 13.3929 15.5472 13.3864 15.5597 13.376C15.5722 13.3655 15.5814 13.3516 15.5859 13.3359L15.5801 13.2715C15.57 13.2525 15.5533 13.238 15.5332 13.2305L15.4453 13.207L15.3867 13.1953V13.1953Z" fill="white"/>
<path d="M15.7266 13.8457L15.9316 13.2539L16.1836 13.3418C16.2293 13.3547 16.2727 13.3744 16.3125 13.4004C16.3359 13.4238 16.3535 13.4531 16.3652 13.4883C16.377 13.5234 16.3652 13.5527 16.3535 13.5879C16.3418 13.6348 16.3125 13.6641 16.2773 13.6816C16.2572 13.6934 16.2349 13.701 16.2117 13.704C16.1886 13.707 16.1651 13.7054 16.1426 13.6992L16.1895 13.7695L16.2246 13.8867L16.2539 14.0273L16.1133 13.9805L16.0723 13.8223C16.0631 13.7844 16.0514 13.7472 16.0371 13.7109C16.0321 13.6976 16.0241 13.6856 16.0137 13.6758C15.9959 13.6628 15.9761 13.6529 15.9551 13.6465L15.9316 13.6406L15.8438 13.8867L15.7266 13.8457V13.8457Z" fill="#309E3A"/>
<path d="M15.9609 13.5469L16.0488 13.5762L16.1602 13.6055C16.1777 13.6055 16.1895 13.6055 16.2012 13.5937L16.2305 13.5527V13.4941C16.223 13.4788 16.2106 13.4664 16.1953 13.459L16.1074 13.4297L16.0137 13.3945L15.9609 13.5469V13.5469Z" fill="white"/>
<path d="M16.4581 13.8223C16.473 13.7687 16.4989 13.7188 16.5343 13.6758C16.5519 13.6465 16.5812 13.6289 16.6105 13.6113C16.6394 13.5954 16.6713 13.5854 16.7042 13.582C16.7452 13.582 16.7921 13.582 16.839 13.5996C16.8787 13.6096 16.916 13.6277 16.9483 13.653C16.9806 13.6782 17.0072 13.7099 17.0265 13.7461C17.0616 13.8164 17.0675 13.9043 17.0323 13.998C17.0226 14.0402 17.0047 14.08 16.9796 14.1152C16.9544 14.1504 16.9226 14.1803 16.8858 14.2031C16.8497 14.2211 16.8102 14.2315 16.7699 14.2335C16.7295 14.2355 16.6892 14.2291 16.6515 14.2148C16.6117 14.2049 16.5745 14.1867 16.5422 14.1615C16.5099 14.1363 16.4832 14.1045 16.464 14.0684C16.4295 13.9903 16.4274 13.9018 16.4581 13.8223V13.8223Z" fill="#309E3A"/>
<path d="M16.5806 13.8574C16.563 13.9218 16.563 13.9745 16.5806 14.0214C16.604 14.0683 16.6392 14.0976 16.686 14.1152C16.7329 14.1269 16.7739 14.121 16.8149 14.0976C16.856 14.0742 16.8911 14.0273 16.9146 13.957C16.9321 13.8867 16.9321 13.8339 16.9146 13.787C16.9047 13.7654 16.8901 13.7463 16.8718 13.7311C16.8536 13.7158 16.8321 13.7049 16.8091 13.6992C16.7867 13.6919 16.763 13.6897 16.7397 13.6927C16.7164 13.6958 16.6941 13.704 16.6743 13.7167C16.6333 13.7402 16.604 13.787 16.5806 13.8574V13.8574Z" fill="white"/>
<path d="M17.6777 14.6953L17.9648 14.1387L18.1992 14.2559C18.2578 14.291 18.2988 14.3145 18.3164 14.3379C18.3398 14.3672 18.3516 14.3965 18.3574 14.4258C18.3633 14.4551 18.3574 14.4961 18.334 14.5254C18.3164 14.5664 18.2871 14.5957 18.2461 14.6133C18.2051 14.625 18.1641 14.625 18.1113 14.6074C18.1289 14.6309 18.1406 14.6602 18.1465 14.6836L18.1641 14.8066L18.1758 14.9531L18.041 14.8828L18.0234 14.7187L18.0059 14.6016C18.0008 14.5882 17.9928 14.5762 17.9824 14.5664C17.9668 14.552 17.949 14.5402 17.9297 14.5312L17.9062 14.5195L17.7891 14.7539L17.6777 14.6953V14.6953Z" fill="#309E3A"/>
<path d="M17.9531 14.4316L18.0352 14.4727L18.1406 14.5195C18.1582 14.5195 18.1699 14.5195 18.1816 14.5078C18.1974 14.4996 18.2104 14.4868 18.2187 14.4711C18.2271 14.4555 18.2305 14.4376 18.2285 14.4199C18.2222 14.4024 18.2097 14.3878 18.1934 14.3789C18.1685 14.3624 18.1431 14.3467 18.1172 14.332L18.0293 14.291L17.9531 14.4316V14.4316Z" fill="white"/>
<path d="M19.9921 15.8379C20.0273 15.7793 20.0624 15.7441 20.1093 15.7207C20.1379 15.7016 20.1696 15.6877 20.2031 15.6797C20.234 15.6737 20.2658 15.6737 20.2968 15.6797C20.3378 15.6855 20.3847 15.7031 20.4257 15.7383C20.4603 15.7594 20.4902 15.7875 20.5134 15.8208C20.5366 15.8541 20.5526 15.8918 20.5605 15.9316C20.569 16.0169 20.5461 16.1023 20.496 16.1719C20.4738 16.2097 20.4441 16.2426 20.4089 16.2688C20.3737 16.295 20.3336 16.3138 20.2909 16.3242C20.2513 16.3316 20.2105 16.3308 20.1712 16.3217C20.1319 16.3126 20.0948 16.2955 20.0624 16.2715C20.0278 16.2503 19.9979 16.2222 19.9747 16.1889C19.9515 16.1557 19.9355 16.1179 19.9277 16.0781C19.9211 16.0362 19.923 15.9934 19.933 15.9522C19.9431 15.9109 19.9612 15.8721 19.9863 15.8379H19.9921Z" fill="#309E3A"/>
<path d="M20.0978 15.9023C20.0626 15.9609 20.0451 16.0195 20.0509 16.0663C20.0549 16.09 20.0638 16.1127 20.0769 16.1328C20.09 16.153 20.1071 16.1702 20.1271 16.1835C20.1457 16.1964 20.1668 16.2052 20.189 16.2092C20.2112 16.2133 20.2341 16.2125 20.256 16.207C20.3029 16.1952 20.3497 16.1601 20.3908 16.0956C20.4318 16.037 20.4493 15.9843 20.4376 15.9374C20.4376 15.8906 20.4083 15.8554 20.3673 15.8202C20.3263 15.7851 20.2794 15.7851 20.2326 15.7968C20.1857 15.8085 20.1447 15.8437 20.1036 15.9023H20.0978Z" fill="white"/>
<path d="M14.4375 13.418L14.5371 12.9727L14.8652 13.0488L14.8477 13.125L14.6133 13.0664L14.5898 13.166L14.8066 13.2188L14.7891 13.2949L14.5723 13.2363L14.543 13.3594L14.7891 13.418L14.7715 13.4941L14.4375 13.418V13.418Z" fill="#309E3A"/>
</g>
<defs>
<clipPath id="clip0_145_128">
<rect width="30" height="30" rx="15" fill="white"/>
</clipPath>
</defs>
</svg>
