<svg width="409" height="420" viewBox="0 0 409 420" fill="none" xmlns="http://www.w3.org/2000/svg">
<path d="M333.885 311.508C333.885 311.508 313.118 305.923 302.055 294.881C290.993 283.838 285.331 264.622 285.331 264.622C285.331 264.622 297.576 267.375 308.59 271.728C310.384 273.813 313.787 278.088 315.299 282.063C315.299 282.063 315.813 277.943 315.638 274.879C318.566 276.372 321.116 278.001 322.92 279.707C332.111 288.424 333.885 311.498 333.885 311.498V311.508Z" fill="#4DB8D7"/>
<path d="M298.051 274.365C295.268 272.271 292.437 270.255 289.674 268.141C289.509 268.015 289.674 267.753 289.858 267.87C295.133 271.311 300.32 274.967 305.322 278.787C307.068 280.115 308.784 281.501 310.471 282.897C310.354 282.684 310.248 282.471 310.131 282.257C309.54 281.181 308.919 280.124 308.299 279.058C307.048 276.935 305.671 274.831 304.091 272.94C304.033 272.872 304.14 272.775 304.198 272.843C305.749 274.792 307.31 276.721 308.716 278.777C309.385 279.756 310.005 280.764 310.587 281.792C310.887 282.325 311.188 282.868 311.469 283.411C311.566 283.595 311.663 283.78 311.76 283.964C314.387 286.203 316.937 288.521 319.361 290.973C320.854 292.486 322.299 294.047 323.685 295.647C322.977 293.077 322.367 290.489 321.533 287.949C321.504 287.861 321.649 287.832 321.669 287.919C322.473 290.576 323.375 293.242 323.966 295.966C325.508 297.76 326.962 299.622 328.339 301.551C328.319 301.435 328.3 301.318 328.281 301.212C328.087 300.213 327.873 299.214 327.65 298.225C327.214 296.306 326.729 294.406 326.167 292.525C325.004 288.666 323.452 284.865 320.961 281.666C320.903 281.598 321.009 281.501 321.067 281.569C324.965 286.581 327.137 292.486 328.426 298.652C328.61 299.554 328.795 300.455 328.959 301.367C329.047 301.842 329.153 302.336 329.211 302.831C329.813 303.713 330.394 304.605 330.957 305.507C334.379 311.062 336.977 317.092 339.13 323.249C341.553 330.181 343.366 337.307 345.015 344.452C345.044 344.588 344.84 344.637 344.801 344.501C341.195 332.072 337.501 319.468 330.918 308.231C329.531 305.856 328.019 303.568 326.4 301.347C322.958 301.018 319.506 300.126 316.288 298.914C312.73 297.566 309.385 295.763 306.272 293.572C304.479 292.311 302.85 290.847 301.192 289.412C301.115 289.345 301.212 289.238 301.289 289.306C304.023 291.817 307.358 293.824 310.664 295.501C313.98 297.178 317.49 298.536 321.097 299.466C322.628 299.864 324.189 300.174 325.75 300.455C323.908 297.993 321.93 295.627 319.846 293.358C319.167 292.622 318.459 291.924 317.761 291.206C315.425 289.354 312.817 287.861 310.189 286.465C306.825 284.672 303.509 282.781 300.184 280.91C298.303 279.863 296.442 278.787 294.541 277.759C294.464 277.71 294.541 277.594 294.619 277.642C297.993 279.446 301.435 281.133 304.847 282.868C308.056 284.497 311.314 286.136 314.378 288.026C314.513 288.104 314.63 288.191 314.766 288.278C312.022 285.69 309.181 283.217 306.263 280.832C303.567 278.622 300.833 276.46 298.051 274.365Z" fill="#263238"/>
<path d="M298.807 285.214C300.484 286.029 302.191 286.756 303.849 287.619C305.555 288.501 307.155 289.519 308.764 290.557C308.832 290.605 308.764 290.702 308.696 290.663C307.058 289.8 305.39 288.986 303.771 288.084C302.113 287.163 300.475 286.184 298.768 285.36C298.691 285.321 298.73 285.185 298.817 285.224L298.807 285.214Z" fill="#263238"/>
<path d="M399.288 203.803C399.288 203.803 393.772 210.852 393.966 221.536C393.995 223.417 394.431 226.015 394.819 229.089C387.237 233.674 381.779 241.498 381.779 241.498C386.074 238.6 392.104 237.194 395.41 237.456C395.41 239.482 395.284 241.605 394.945 243.757C393.491 243.757 390.698 244.097 386.161 245.987C386.161 245.987 390.698 245.629 394.257 247.151C391.164 259.231 380.722 272.029 350.357 278.844C350.357 278.844 343.327 258.358 353.469 235.429C361.681 216.873 399.298 203.803 399.298 203.803H399.288Z" fill="#4DB8D7"/>
<path d="M342.465 330.229C342.726 325.13 343.124 320.03 343.638 314.95C344.665 304.779 346.158 294.638 348.214 284.623C349.183 279.901 350.395 275.257 351.908 270.72C351.753 269.915 351.723 269.081 351.665 268.277C351.588 267.298 351.53 266.318 351.491 265.329C351.404 263.361 351.394 261.403 351.462 259.435C351.588 255.557 351.966 251.649 352.732 247.849C353.178 245.638 353.711 243.447 354.235 241.256C354.254 241.169 354.39 241.198 354.37 241.285C353.488 245.076 353.071 249.003 352.722 252.871C352.373 256.71 352.247 260.569 352.305 264.428C352.325 265.485 352.363 266.541 352.412 267.588C352.431 268.034 352.48 268.49 352.518 268.936C353.827 265.213 355.34 261.548 357.104 257.971C359.897 252.318 363.164 246.908 366.751 241.722C366.683 241.159 366.829 240.548 366.906 239.996C367.013 239.307 367.129 238.609 367.246 237.921C367.488 236.505 367.759 235.09 368.07 233.684C368.68 230.863 369.543 228.129 370.261 225.346C370.28 225.259 370.426 225.288 370.396 225.385C369.737 228.138 369.349 230.979 368.874 233.781C368.642 235.168 368.419 236.544 368.186 237.931C368.07 238.619 367.963 239.317 367.856 240.005C367.856 240.054 367.847 240.112 367.837 240.161C368.991 238.532 370.173 236.922 371.385 235.332C376.873 228.158 382.942 221.488 389.069 214.856C389.826 214.042 390.592 213.247 391.358 212.442C391.425 212.374 391.522 212.471 391.464 212.539C385.637 219.306 379.907 226.141 374.527 233.267C373.247 234.964 371.986 236.67 370.755 238.406C371.424 237.892 372.103 237.397 372.772 236.913C374.488 235.652 376.233 234.421 378.036 233.277C379.84 232.133 381.662 231.018 383.514 229.971C385.424 228.895 387.479 227.983 389.322 226.781C389.399 226.733 389.477 226.868 389.399 226.897C387.489 227.799 385.725 229.127 383.97 230.291C382.166 231.493 380.363 232.715 378.589 233.975C376.853 235.216 375.099 236.438 373.373 237.698C371.938 238.745 370.523 239.879 369.029 240.859C365.743 245.629 362.669 250.544 359.974 255.673C358.277 258.901 356.765 262.208 355.417 265.572C355.776 265.388 356.135 265.213 356.494 265.039C357.405 264.573 358.316 264.108 359.228 263.642C360.982 262.741 362.757 261.868 364.521 260.986C367.876 259.309 371.298 257.748 374.575 255.925C376.417 254.907 378.221 253.831 379.908 252.57C379.985 252.512 380.053 252.638 379.985 252.687C373.935 257.36 367.052 260.782 360.265 264.234L357.318 265.727C356.513 266.134 355.698 266.59 354.865 266.958C353.061 271.66 351.578 276.489 350.444 281.433C348.175 291.313 346.585 301.376 345.363 311.43C344.142 321.533 343.492 331.674 343.114 341.835C343.066 343.105 343.017 344.375 342.949 345.635C342.92 346.139 342.174 346.178 342.154 345.654C341.931 340.516 342.183 335.339 342.445 330.21L342.465 330.229Z" fill="#263238"/>
<path d="M356.572 244.601C356.969 241.46 357.638 238.367 358.307 235.274C358.326 235.187 358.462 235.216 358.443 235.313C357.832 238.348 357.434 241.431 357.037 244.494C356.63 247.626 356.29 250.757 356.019 253.899C356.019 253.947 355.932 253.957 355.932 253.899C355.97 250.787 356.174 247.684 356.562 244.601H356.572Z" fill="#263238"/>
<path d="M370.222 252.347C372.219 250.767 374.488 249.526 376.689 248.237C377.775 247.597 378.88 246.986 379.976 246.385C381.11 245.755 382.302 245.222 383.427 244.582C383.505 244.533 383.582 244.659 383.505 244.698C382.419 245.318 381.391 246.055 380.315 246.715C379.21 247.393 378.114 248.082 377.009 248.76C374.837 250.079 372.704 251.533 370.406 252.638C370.203 252.735 370.048 252.483 370.222 252.347Z" fill="#263238"/>
<path opacity="0.1" d="M335.068 276.964C335.068 276.964 315.658 272.329 306.748 259.309C298.235 246.879 295.492 225.686 295.269 223.814C295.618 225.521 299.622 244.048 312.836 252.677C322.948 259.289 332.731 264.719 335.068 276.964Z" fill="#263238"/>
<path d="M317.161 243.428C320.574 246.715 323.133 250.583 324.316 255.217C324.326 255.256 324.268 255.275 324.258 255.237C322.804 250.932 320.39 246.676 317.064 243.534C316.996 243.467 317.093 243.36 317.161 243.428Z" fill="#263238"/>
<path d="M335.068 276.964C335.068 276.964 315.658 272.329 306.749 259.309C298.236 246.879 295.492 225.686 295.269 223.814C295.25 223.727 295.25 223.679 295.25 223.679C295.25 223.679 304.557 236.913 314.34 240.287C324.122 243.661 337.87 255.334 335.068 276.954V276.964Z" fill="#4DB8D7"/>
<path d="M298.692 230.989C300.495 234.518 302.376 238.018 304.693 241.246C306.942 244.388 309.657 247.064 312.672 249.458C315.309 251.552 318.092 253.453 320.768 255.498C320.748 255.469 320.729 255.431 320.709 255.402C320.205 254.655 319.672 253.938 319.119 253.23C318.004 251.814 316.793 250.467 315.571 249.148C313.157 246.53 310.694 243.961 308.532 241.13C307.34 239.559 306.283 237.892 305.42 236.118C305.381 236.04 305.517 235.992 305.556 236.069C308.707 242.633 314.989 246.821 319.478 252.367C320.118 253.152 320.719 253.967 321.272 254.82C321.66 255.421 322.135 256.09 322.387 256.788C324.83 258.785 327.079 260.967 329.009 263.478C328.844 262.208 328.572 260.937 328.233 259.706C327.748 257.971 327.118 256.332 326.178 254.791C326.129 254.713 326.245 254.636 326.294 254.713C327.205 256.245 328.029 257.893 328.553 259.6C328.979 260.986 329.183 262.372 329.261 263.788H329.27C330.24 265.097 331.103 266.473 331.888 267.879C331.81 267.462 331.733 267.045 331.646 266.638C331.258 264.709 330.831 262.78 330.337 260.87C329.319 257.001 327.942 253.249 325.664 249.933C325.615 249.856 325.732 249.778 325.78 249.856C328.029 253.133 329.726 256.778 330.948 260.55C331.568 262.45 332.063 264.389 332.499 266.347C332.712 267.298 332.906 268.257 333.09 269.217C333.187 269.712 333.294 270.226 333.371 270.73C335.359 274.918 336.745 279.417 337.851 283.886C339.828 291.933 341.06 300.203 341.99 308.425C342.96 317.063 343.474 325.789 343.328 334.476C343.309 335.571 343.251 336.657 343.183 337.743C343.164 338.024 342.747 338.063 342.737 337.772C342.543 333.468 342.436 329.153 342.184 324.858C341.932 320.553 341.554 316.259 341.099 311.964C340.197 303.548 338.888 295.142 337.056 286.872C335.485 279.775 333.439 272.64 329.561 266.415C327.622 263.303 325.295 260.54 322.561 258.087C319.837 255.644 316.86 253.501 314 251.242C311.15 248.993 308.406 246.54 306.137 243.69C303.694 240.607 301.775 237.155 299.962 233.674C299.506 232.792 299.031 231.92 298.575 231.047C298.536 230.969 298.653 230.882 298.692 230.969V230.989Z" fill="#263238"/>
<path d="M302.036 233.83C303.277 236.457 304.78 238.949 306.36 241.392C306.399 241.45 306.312 241.508 306.273 241.45C304.586 239.065 303.171 236.505 301.9 233.878C301.862 233.8 301.997 233.752 302.036 233.83Z" fill="#263238"/>
<path d="M408.703 268.383C408.703 268.383 409.013 295.966 392.522 303.926C376.03 311.896 367.188 305.254 355.98 307.921C355.98 307.921 355.99 307.921 356 307.911C356.436 307.252 364.435 295.763 377.155 292.592C390.243 289.335 404.738 279.882 408.703 268.383Z" fill="#4DB8D7"/>
<path opacity="0.1" d="M408.703 268.383C408.703 268.383 409.013 295.966 392.522 303.926C376.03 311.896 367.188 305.254 355.98 307.921C355.98 307.921 355.99 307.921 356 307.911C356.465 307.688 364.648 303.597 374.75 302.385C385.144 301.134 405.009 294.357 408.703 268.393V268.383Z" fill="black"/>
<path d="M354.895 308.405C356.863 306.631 359.064 305.109 361.459 303.965C361.808 303.8 362.176 303.655 362.535 303.509C362.709 303.286 362.894 303.083 363.087 302.879C363.582 302.365 364.096 301.871 364.639 301.405C365.676 300.513 366.781 299.709 367.954 299.011C370.689 297.401 373.684 296.277 376.477 294.793C376.554 294.754 376.632 294.881 376.544 294.919C375.168 295.637 373.83 296.432 372.482 297.207C371.173 297.973 369.835 298.7 368.565 299.515C367.421 300.252 366.326 301.066 365.298 301.958C365.007 302.21 364.726 302.491 364.454 302.772C366.277 302.152 368.139 301.677 370.029 301.289C373.044 300.678 376.098 300.252 379.114 299.602C380.597 299.282 382.051 298.894 383.486 298.419C384.853 297.314 386.22 296.218 387.519 295.026C389.08 293.581 390.525 292.011 391.785 290.295C391.844 290.217 391.96 290.295 391.911 290.372C389.875 293 387.694 295.646 385.154 297.828C385.862 297.556 386.569 297.266 387.267 296.955C392.871 294.405 397.855 290.363 401.316 285.263C401.364 285.185 401.49 285.263 401.442 285.34C398.427 289.713 394.597 293.455 390.069 296.257C387.801 297.663 385.416 298.807 382.885 299.66C379.977 300.63 376.961 301.212 373.956 301.774C371.008 302.326 368.061 302.889 365.22 303.849C362.593 304.741 360.111 306.04 357.891 307.707C353.644 310.887 350.367 315.241 348.011 319.962C344.89 326.225 343.396 333.225 342.572 340.128C342.534 340.429 342.078 340.429 342.097 340.118C342.873 328.523 345.966 316.462 354.905 308.415L354.895 308.405Z" fill="#263238"/>
<path d="M374.033 299.418C374.857 298.099 376.089 297.11 377.427 296.344C378.987 295.443 380.384 294.473 381.46 293.009C381.518 292.932 381.634 293.009 381.586 293.087C380.587 294.367 379.395 295.414 378.028 296.277C376.593 297.178 375.138 298.061 374.15 299.486C374.101 299.554 374.004 299.486 374.043 299.418H374.033Z" fill="#263238"/>
<path d="M363.844 338.015L363.088 353.178L360.79 418.902H326.198L323.9 353.178L323.144 338.015H363.844Z" fill="#455A64"/>
<path d="M363.844 338.015L363.156 351.85L323.716 349.591L323.144 338.015H363.844Z" fill="#37474F"/>
<path d="M366.268 331.994H320.72V344.026H366.268V331.994Z" fill="#455A64"/>
<path d="M54.4775 410.778H73.2669L156.908 258.107H137.411L54.4775 410.778Z" fill="#A6A6A6"/>
<path d="M48.04 410.778H54.4777L137.411 258.107H130.808L48.04 410.778Z" fill="#C7C7C7"/>
<path d="M184.278 258.107H164.955V410.778H184.278V258.107Z" fill="#A6A6A6"/>
<path d="M164.945 258.107H157.955V410.778H164.945V258.107Z" fill="#C7C7C7"/>
<path d="M198.355 410.778H17.1123V418.902H198.355V410.778Z" fill="#C7C7C7"/>
<path d="M276.363 410.778H198.355V418.902H276.363V410.778Z" fill="#A6A6A6"/>
<path d="M230.815 299.34C230.815 306.195 226.51 311.76 221.178 311.828H132.951V286.853H221.178C226.52 286.921 230.815 292.486 230.815 299.34Z" fill="#37474F"/>
<path d="M132.931 311.828C138.307 311.828 142.665 306.237 142.665 299.34C142.665 292.444 138.307 286.853 132.931 286.853C127.555 286.853 123.197 292.444 123.197 299.34C123.197 306.237 127.555 311.828 132.931 311.828Z" fill="#455A64"/>
<path d="M132.932 305.875C135.748 305.875 138.031 302.949 138.031 299.34C138.031 295.732 135.748 292.806 132.932 292.806C130.115 292.806 127.832 295.732 127.832 299.34C127.832 302.949 130.115 305.875 132.932 305.875Z" fill="#C7C7C7"/>
<path d="M230.815 344.83C230.815 351.685 226.51 357.25 221.178 357.318H132.951V332.343H221.178C226.52 332.411 230.815 337.976 230.815 344.83Z" fill="#37474F"/>
<path d="M132.931 357.318C138.307 357.318 142.665 351.727 142.665 344.83C142.665 337.934 138.307 332.343 132.931 332.343C127.555 332.343 123.197 337.934 123.197 344.83C123.197 351.727 127.555 357.318 132.931 357.318Z" fill="#455A64"/>
<path d="M138.031 344.83C138.031 348.437 135.753 351.365 132.932 351.365C130.11 351.365 127.832 348.437 127.832 344.83C127.832 341.224 130.11 338.296 132.932 338.296C135.753 338.296 138.031 341.224 138.031 344.83Z" fill="#C7C7C7"/>
<path d="M134.794 242.807H122.956V258.107H134.794V242.807Z" fill="#455A64"/>
<path d="M134.804 258.107H226.579V242.807H134.804V258.107Z" fill="#37474F"/>
<path d="M94.8677 90.6893H82.1572L110.283 242.808H122.994L94.8677 90.6893Z" fill="#455A64"/>
<path d="M94.8682 90.6893H163.84L191.956 242.808H122.994L94.8682 90.6893Z" fill="#37474F"/>
<path d="M266.231 327.757C266.231 327.757 267.918 386.481 267.918 386.52C268.452 397.747 269.13 407.578 269.945 412.629C269.945 412.658 269.945 412.687 269.964 412.707C270.274 414.617 270.604 415.829 270.963 416.129C270.992 416.158 271.001 416.187 271.031 416.197C274.482 418.301 364.299 416.624 367.411 415.509C370.533 414.413 367.595 405.435 364.056 402.721C360.489 400.006 325.828 385.269 325.828 385.269L323.588 326.603L266.231 327.757Z" fill="#EB9481"/>
<path d="M267.53 373.034C267.53 373.034 267.918 386.481 267.918 386.52C268.451 397.747 269.13 407.578 269.944 412.629C269.944 412.658 269.944 412.687 269.964 412.707C270.381 414.588 270.739 415.819 270.962 416.129C270.991 416.158 271.001 416.187 271.03 416.197C274.482 418.301 364.298 416.624 367.411 415.509C370.532 414.413 367.595 405.435 364.056 402.721C360.488 400.006 325.828 385.269 325.828 385.269L325.343 372.539L267.54 373.034H267.53Z" fill="#EBEBEB"/>
<path d="M367.439 415.402C364.279 416.478 273.725 416.711 270.274 414.53C268.945 413.725 268.141 400.53 267.627 384.562C267.627 384.397 267.627 384.232 267.617 384.057L326.041 383.253L326.021 384.242C326.021 384.242 360.721 399.657 364.269 402.459C367.788 405.251 370.6 414.336 367.439 415.402Z" fill="#4DB8D7"/>
<path d="M366.401 411.892C351.131 411.553 289.528 411.65 274.413 412.474C274.287 412.474 274.287 412.561 274.413 412.571C289.537 413.23 351.141 412.649 366.401 412.144C366.721 412.135 366.721 411.902 366.401 411.892Z" fill="white"/>
<path d="M330.926 384.406C324.915 383.301 317.576 384.242 312.99 388.537C312.816 388.701 313.048 388.953 313.242 388.895C319.166 387.014 324.692 385.802 330.897 385.172C331.334 385.124 331.353 384.494 330.917 384.416L330.926 384.406Z" fill="#263238"/>
<path d="M335.27 387.014C329.259 385.909 321.92 386.85 317.334 391.145C317.159 391.309 317.392 391.561 317.586 391.503C323.51 389.622 329.036 388.41 335.241 387.78C335.677 387.732 335.697 387.102 335.26 387.024L335.27 387.014Z" fill="#263238"/>
<path d="M339.613 389.613C333.602 388.508 326.263 389.448 321.677 393.743C321.502 393.908 321.735 394.16 321.929 394.102C327.853 392.221 333.379 391.009 339.584 390.379C340.02 390.33 340.04 389.7 339.603 389.622L339.613 389.613Z" fill="#263238"/>
<path d="M368.816 412.145C370.435 412.765 370.106 418.204 368.933 418.65C367.759 419.086 269.023 418.912 267.346 418.544C265.669 418.175 266.27 412.145 268.218 411.834C270.167 411.524 368.816 412.145 368.816 412.145Z" fill="#263238"/>
<path d="M282.596 394.16C276.023 390.893 270.933 401.102 277.526 404.379C284.099 407.646 289.189 397.437 282.596 394.16Z" fill="white"/>
<path d="M311.091 383.456C311.091 383.456 313.776 379.21 315.211 378.667C316.646 378.134 328.125 377.901 328.94 378.444C329.744 378.977 326.041 383.253 326.041 383.253L311.091 383.456Z" fill="#4DB8D7"/>
<path opacity="0.1" d="M304.537 416.081C286.678 415.887 271.641 415.402 270.274 414.53C269.159 413.861 268.422 404.427 267.898 391.949L304.537 416.081Z" fill="black"/>
<path d="M325.285 370.222L269.392 370.92C269.392 370.92 262.324 258.494 255.334 255.276C243.573 249.866 170.238 244.562 143.819 225.472C122.363 209.97 130.197 158.847 130.197 158.847L190.385 158.876C190.385 158.876 194.729 179.401 196.028 184.859C196.028 184.859 288.278 203.716 307.242 224.513C325.256 244.262 325.285 370.232 325.285 370.232V370.222Z" fill="#EB9481"/>
<path opacity="0.1" d="M252.658 254.316C235.158 249.187 168.687 243.428 143.819 225.463C122.363 209.96 130.188 158.827 130.188 158.827L190.385 158.856C190.385 158.856 194.729 179.381 196.038 184.84C196.038 184.84 211.695 188.039 231.425 193.245L252.667 254.306L252.658 254.316Z" fill="black"/>
<path d="M205.316 247.626C205.316 247.626 236.864 206.838 264.292 201.554C264.292 201.554 225.831 190.531 197.462 183.356L190.375 158.866L130.187 158.837C130.187 158.837 121.869 206.693 137.905 222.797C153.931 238.9 205.306 247.626 205.306 247.626H205.316Z" fill="#4DB8D7"/>
<path opacity="0.1" d="M238.153 214.827C220.062 228.575 205.325 247.626 205.325 247.626C205.325 247.626 153.95 238.9 137.914 222.806C121.878 206.703 130.197 158.837 130.197 158.837L190.395 158.866L197.482 183.366C203.512 184.888 210.008 186.595 216.494 188.311L238.163 214.827H238.153Z" fill="black"/>
<path d="M244.319 370.785L187.302 370.911C187.302 370.911 187.146 250.389 180.156 247.18C168.396 241.77 146.359 240.345 130.206 225.463C110.738 207.526 126.483 158.837 126.483 158.837L180.515 158.866C180.515 158.866 189.037 180.768 190.336 186.226C190.336 186.226 215.263 195.165 234.227 215.952C252.24 235.701 244.319 370.775 244.319 370.775V370.785Z" fill="#EB9481"/>
<path d="M186.816 327.757C186.816 327.757 187.427 386.481 187.427 386.52C187.96 397.747 188.639 407.578 189.454 412.629C189.454 412.658 189.454 412.687 189.473 412.707C189.783 414.617 190.113 415.829 190.472 416.129C190.501 416.158 190.51 416.187 190.539 416.197C193.991 418.301 270.864 416.624 273.977 415.509C277.098 414.413 274.161 405.435 270.622 402.721C267.054 400.006 245.337 385.269 245.337 385.269L244.173 326.603L186.816 327.757Z" fill="#EB9481"/>
<path d="M187.302 373.034C187.302 373.034 187.428 386.481 187.428 386.52C187.961 397.747 188.64 407.578 189.454 412.629C189.454 412.658 189.454 412.687 189.473 412.707C189.89 414.587 190.249 415.819 190.472 416.129C190.501 416.158 190.511 416.187 190.54 416.197C193.991 418.301 270.865 416.623 273.977 415.509C277.099 414.413 274.161 405.435 270.623 402.721C267.055 400.006 245.337 385.269 245.337 385.269L245.095 373.034H187.302Z" fill="#EBEBEB"/>
<path d="M274.016 415.402C270.855 416.478 193.235 416.711 189.783 414.529C188.455 413.725 187.651 400.529 187.137 384.561C187.137 384.396 187.137 384.232 187.127 384.057L245.55 383.252L245.531 384.241C245.531 384.241 267.297 399.657 270.836 402.459C274.355 405.251 277.167 414.335 274.006 415.402H274.016Z" fill="#4DB8D7"/>
<path d="M272.978 411.892C257.708 411.553 209.047 411.65 193.932 412.474C193.806 412.474 193.806 412.561 193.932 412.571C209.057 413.23 257.717 412.648 272.978 412.144C273.298 412.135 273.298 411.902 272.978 411.892Z" fill="white"/>
<path d="M242.215 388.304C233.528 385.928 225.908 385.744 215.621 388.914C215.34 389.002 215.708 389.351 215.999 389.322C224.783 388.595 232.985 388.469 242.186 389.07C242.835 389.108 242.855 388.478 242.215 388.304Z" fill="#263238"/>
<path d="M244.358 391.707C235.671 389.331 228.05 389.147 217.764 392.318C217.482 392.405 217.851 392.754 218.142 392.725C226.926 391.998 235.128 391.872 244.329 392.473C244.978 392.511 244.997 391.881 244.358 391.707Z" fill="#263238"/>
<path d="M246.51 395.11C237.823 392.734 230.203 392.55 219.916 395.721C219.635 395.808 220.003 396.157 220.294 396.128C229.078 395.401 237.28 395.275 246.481 395.876C247.13 395.915 247.15 395.284 246.51 395.11Z" fill="#263238"/>
<path d="M275.393 412.144C277.012 412.765 276.682 418.204 275.509 418.65C274.336 419.086 188.543 418.911 186.865 418.543C185.188 418.175 185.789 412.144 187.738 411.834C189.687 411.524 275.402 412.144 275.402 412.144H275.393Z" fill="#263238"/>
<path d="M194.233 392.87C188.988 392.87 188.979 404.281 194.233 404.281C199.479 404.281 199.488 392.87 194.233 392.87Z" fill="white"/>
<path d="M212.548 383.708C212.548 383.708 210.453 379.781 211.326 378.279C211.82 377.426 237.406 377.261 239.083 377.978C240.761 378.696 239.52 383.33 239.52 383.33L212.557 383.698L212.548 383.708Z" fill="#4DB8D7"/>
<path d="M126.551 158.769L180.583 158.847L191.887 185.916C191.887 185.916 213.265 193.876 230.494 210.61C230.494 210.61 210.367 205.675 196.241 215.389C180.631 226.122 176.656 247.626 176.656 247.626C176.656 247.626 135.451 238.687 124.525 221.827C112.716 203.61 126.551 158.769 126.551 158.769Z" fill="#4DB8D7"/>
<path d="M181.193 234.208C180.883 234.896 180.583 235.575 180.301 236.234C168.735 233.936 133.667 225.85 126.367 211.201C120.055 198.529 125.775 168.6 127.908 158.769H130.119C128.141 167.883 122.285 198.141 128.296 210.241C135.17 224.037 170.422 232.055 181.193 234.208Z" fill="white"/>
<path d="M183.715 229.399C183.317 230.068 182.939 230.737 182.59 231.406C168.745 228.914 137.788 221.924 131.031 208.331C125.262 196.755 129.46 170.723 131.826 158.779H134.046C131.758 170.306 127.482 196.377 132.96 207.371C139.33 220.188 170.577 227.053 183.705 229.399H183.715Z" fill="white"/>
<path opacity="0.1" d="M195.301 187.564C181.262 184.074 165.207 185.654 153.029 193.992C162.046 182.28 183.065 179.885 195.301 187.564Z" fill="black"/>
<path d="M174.369 103.468C201.118 119.096 223.582 124.099 229.331 124.497C243.777 125.495 253.074 76.8833 253.966 68.1188C254.364 64.2116 222.224 63.116 221.158 67.1783C218.753 76.3403 216.058 94.1893 215.554 94.2183C211.976 94.3832 191.539 90.7862 173.157 89.7198C168.309 89.4386 166.787 99.0369 174.359 103.468H174.369Z" fill="#EB9481"/>
<path opacity="0.1" d="M190.608 111.999C185.47 109.595 180.011 106.774 174.359 103.468C166.777 99.0369 168.309 89.4386 173.147 89.7198H173.166L190.598 111.999H190.608Z" fill="black"/>
<path d="M253.133 41.4955C255.779 48.6797 255.44 65.4816 253.802 69.5051C252.163 73.5286 223.572 73.9067 220.799 70.4164C218.026 66.9262 210.987 42.0579 213.469 34.641C215.942 27.2338 250.399 34.0496 253.142 41.4858L253.133 41.4955Z" fill="#EB9481"/>
<path d="M205.674 28.8413L193.342 28.8585L193.392 65.0508L205.725 65.0336L205.674 28.8413Z" fill="#455A64"/>
<path d="M193.336 31.8736L187.412 31.8818L187.454 62.0243L193.378 62.016L193.336 31.8736Z" fill="#455A64"/>
<path d="M193.346 31.8735L190.379 31.8777L190.421 62.0201L193.388 62.016L193.346 31.8735Z" fill="#263238"/>
<path d="M255.111 64.9009L267.443 64.8837L267.393 28.6914L255.06 28.7086L255.111 64.9009Z" fill="#455A64"/>
<path d="M267.44 61.8648L273.363 61.8566L273.321 31.7141L267.397 31.7224L267.44 61.8648Z" fill="#455A64"/>
<path d="M270.355 31.7565L267.389 31.7606L267.431 61.9031L270.397 61.8989L270.355 31.7565Z" fill="#263238"/>
<path d="M255.056 41.5062L205.679 41.5924L205.697 52.2862L255.075 52.2001L255.056 41.5062Z" fill="#37474F"/>
<path d="M211.946 46.8086C215.117 49.3391 216.28 44.1521 216.28 44.1521C216.28 44.1521 216.397 52.015 220.672 53.3626C224.793 54.6521 225.985 48.3405 226.082 47.8848C226.082 48.3017 226.383 55.5246 230.823 56.436C235.438 57.3764 235.545 50.8418 235.545 50.4152C235.68 50.8031 237.513 55.9318 241.042 55.8543C247.101 55.7185 242.758 42.4845 245.162 38.1992C245.162 38.1992 252.889 41.4375 253.132 41.4859C253.132 41.4859 249.263 28.8046 243.301 25.896C240.16 24.3641 238.114 26.9819 238.114 26.9819C238.114 26.9819 237.319 22.7547 233.848 21.9306C232.064 21.5137 229.805 23.986 229.805 23.986C229.805 23.986 229.029 20.6315 225.898 20.0885C223.396 19.6426 221.525 22.2021 221.525 22.2021C221.525 22.2021 219.286 19.3226 216.581 19.7007C211.132 20.4473 205.169 41.3696 211.956 46.7989L211.946 46.8086Z" fill="#EB9481"/>
<path d="M221.157 22.5608C221.186 22.4929 221.089 22.4444 221.051 22.5123C217.415 28.9112 215.369 37.0649 216.184 44.4235C216.213 44.6659 216.61 44.7241 216.639 44.4526C217.25 36.7061 218.414 29.871 221.157 22.5608Z" fill="#263238"/>
<path d="M229.796 23.8794C229.825 23.8018 229.699 23.7534 229.65 23.8309C225.937 30.4431 223.891 39.6923 225.83 48.069C225.898 48.3599 226.247 48.5441 226.189 48.2144C225.326 42.5427 227.294 30.4625 229.796 23.8891V23.8794Z" fill="#263238"/>
<path d="M235.884 50.9581C234.343 42.8529 235.545 35.0676 237.94 27.2532C237.969 27.1466 237.823 27.1175 237.775 27.1951C235.564 30.7047 234.556 35.8432 234.12 39.9055C233.693 43.803 234.091 47.3999 235.603 51.0066C235.661 51.1423 235.923 51.1229 235.884 50.9484V50.9581Z" fill="#263238"/>
<path d="M216.28 44.1521C216.455 45.6646 216.736 47.1576 217.172 48.5925C217.618 50.008 218.248 51.4429 219.305 52.364C219.829 52.8196 220.459 53.0911 221.128 53.0814C221.806 53.062 222.505 52.9069 223.067 52.5579C224.221 51.8889 224.909 50.4928 225.132 49.1936L225.704 45.9166L226.305 49.1936C226.567 50.6188 227.042 52.0925 227.75 53.3529C228.457 54.6133 229.495 55.6797 230.775 55.9415C232.113 56.2421 233.363 55.7573 233.993 54.5648C234.662 53.4111 234.895 51.8598 234.885 50.4443L234.856 46.508L236.165 50.2019C236.524 51.2005 237.028 52.2282 237.629 53.1202C238.24 54.0025 239.006 54.7878 239.908 55.1271C240.79 55.4664 241.866 55.321 242.506 54.6811C243.194 54.0218 243.534 52.9166 243.757 51.8501C244.183 49.6493 244.144 47.3321 244.232 45.0344C244.261 43.8806 244.29 42.7269 244.377 41.5635C244.484 40.4194 244.581 39.2172 245.153 38.1992C244.687 39.2657 244.726 40.4388 244.697 41.5829C244.697 42.7269 244.755 43.8806 244.813 45.0344C244.93 47.3418 245.017 49.659 244.697 52.0246C244.493 53.1881 244.232 54.4387 243.301 55.4664C242.331 56.5232 240.741 56.7365 239.491 56.2711C238.211 55.7961 237.309 54.8266 236.592 53.8473C235.884 52.839 235.341 51.7919 234.905 50.6285L236.185 50.3861C236.214 52.0537 236.029 53.6922 235.186 55.2628C234.769 56.0385 234.052 56.7462 233.16 57.0855C232.268 57.4346 231.347 57.4346 230.474 57.2407C228.661 56.8238 227.41 55.3792 226.644 53.9637C225.859 52.4997 225.394 50.9775 225.122 49.3584H226.295C225.946 51.0066 225.054 52.5579 223.523 53.382C222.766 53.7795 221.923 53.9249 221.089 53.9055C220.226 53.8764 219.392 53.4692 218.801 52.8972C217.608 51.7144 217.143 50.1631 216.775 48.6895C216.426 47.1867 216.271 45.6646 216.271 44.1424L216.28 44.1521Z" fill="#263238"/>
<path d="M218.85 66.3929C218.85 66.3929 196.542 42.7947 210.037 38.5967C214.051 37.346 232.007 37.0066 232.143 40.6133C232.317 45.267 224.852 46.8085 220.004 47.0315C220.004 47.0315 228.72 53.9927 225.686 61.5065C223.785 66.2184 218.841 66.3929 218.841 66.3929H218.85Z" fill="#EB9481"/>
<path d="M208.941 39.0136C210.425 38.2767 212.083 37.9568 213.702 37.6756C215.34 37.4042 216.998 37.2878 218.656 37.2491C221.972 37.2006 225.259 37.2491 228.603 37.7726C229.437 37.918 230.281 38.1022 231.134 38.5094C231.551 38.713 231.997 39.0039 232.336 39.4208C232.511 39.6244 232.637 39.8183 232.763 40.1382C232.86 40.4194 232.918 40.6909 232.918 40.9429C232.976 41.9997 232.54 42.9402 231.968 43.677C231.367 44.4041 230.639 44.9568 229.883 45.4124C228.351 46.3044 226.684 46.7698 225.035 47.0703C223.378 47.4 221.71 47.5163 220.042 47.5939L220.362 46.5662C221.361 47.4097 222.204 48.321 223.009 49.3099C223.804 50.2892 224.502 51.3556 225.074 52.4803C225.637 53.6049 226.044 54.8168 226.257 56.0578C226.48 57.2988 226.451 58.5689 226.199 59.7808C226.286 58.5495 226.18 57.3182 225.869 56.1451C225.559 54.9719 225.045 53.8667 224.434 52.8293C223.824 51.7919 223.106 50.8127 222.292 49.9207C221.487 49.0288 220.595 48.1756 219.664 47.4775L218.491 46.5856L219.984 46.4498C221.594 46.2947 223.213 46.159 224.774 45.7906C226.325 45.4512 227.886 45.0149 229.195 44.2199C230.475 43.4637 231.619 42.2712 231.551 41.0011C231.589 39.8862 229.873 39.3238 228.361 39.033C226.8 38.7227 225.171 38.5676 223.542 38.4125C221.914 38.2671 220.285 38.1313 218.656 38.0925C215.408 38.0634 212.092 38.015 208.941 38.9942V39.0136Z" fill="#263238"/>
<path d="M118.436 193.992C118.64 194.215 198.664 180.971 198.664 180.971C199.479 180.011 195.717 141.124 185.683 113.803C182.338 104.699 177.674 96.2058 174.077 90.7765C170.839 85.8901 157.246 81.9345 149.277 91.7363C122.906 124.206 117.7 193.187 118.436 193.992Z" fill="#EBEBEB"/>
<path d="M168.745 104.02C165.08 104.04 157.741 96.9135 154.997 91.0382C154.813 90.631 155.666 86.5687 156.48 81.5853C156.965 78.5604 157.421 75.1768 157.624 72.0549L176.879 78.0563C176.879 78.0563 174.543 84.4648 174.223 89.9039C174.203 90.3595 174.223 90.7861 174.271 91.1933C174.271 91.2515 174.291 91.3291 174.291 91.4066C174.533 93.8595 174.484 103.981 168.745 104.02Z" fill="#EB9481"/>
<path d="M156.616 80.7129C160.184 86.8597 165.875 93.0162 174.368 92.638C174.349 92.1145 174.329 91.6976 174.3 91.4067C174.3 91.3292 174.281 91.2516 174.281 91.1935C174.213 90.7863 174.203 90.3597 174.232 89.904C174.543 84.465 176.879 78.0564 176.879 78.0564L157.625 72.0551C157.46 74.8667 157.052 77.9207 156.616 80.7129Z" fill="#263238"/>
<path d="M154.891 49.3389C152.341 56.145 154.765 76.408 159.418 81.1781C166.166 88.1005 177.839 89.4384 183.87 81.1878C189.716 73.1892 186.1 46.8376 180.845 42.4359C173.098 35.9498 158.653 39.285 154.891 49.3389Z" fill="#EB9481"/>
<path d="M171.828 61.4675C171.809 61.4191 171.731 61.5451 171.741 61.6033C171.954 62.9606 171.964 64.5506 170.781 65.1614C170.742 65.1808 170.762 65.2487 170.8 65.239C172.284 64.8415 172.245 62.7279 171.828 61.4772V61.4675Z" fill="#263238"/>
<path d="M170.442 60.1878C168.231 60.2944 168.6 64.7155 170.645 64.6185C172.662 64.5216 172.294 60.1005 170.442 60.1878Z" fill="#263238"/>
<path d="M180.176 60.8081C180.176 60.7499 180.292 60.8663 180.292 60.9244C180.36 62.3012 180.67 63.8621 181.95 64.2111C181.989 64.2208 181.989 64.2887 181.95 64.2887C180.418 64.2014 180.03 62.1266 180.176 60.8178V60.8081Z" fill="#263238"/>
<path d="M181.281 59.2764C183.472 58.9274 184.006 63.329 181.979 63.6587C179.982 63.9786 179.439 59.577 181.281 59.2764Z" fill="#263238"/>
<path d="M168.978 57.1725C169.598 57.0755 170.141 56.8816 170.742 56.7265C171.421 56.552 171.974 56.4744 172.458 55.9315C172.72 55.6406 172.672 55.0686 172.41 54.7875C171.799 54.1379 170.917 54.1476 170.093 54.3318C169.201 54.5257 168.561 54.9038 167.999 55.6213C167.446 56.3096 168.163 57.2985 168.968 57.1725H168.978Z" fill="#263238"/>
<path d="M182.677 56.426C182.057 56.3775 181.495 56.2321 180.884 56.1157C180.195 55.9897 179.633 55.9606 179.11 55.4468C178.828 55.1753 178.828 54.6033 179.071 54.3027C179.623 53.6144 180.506 53.5562 181.339 53.6725C182.241 53.7986 182.91 54.1282 183.531 54.7972C184.132 55.4468 183.492 56.4842 182.677 56.4163V56.426Z" fill="#263238"/>
<path d="M172.061 74.3526C172.4 74.6628 172.749 75.0894 173.253 75.1088C173.728 75.1282 174.281 74.8858 174.717 74.7016C174.756 74.6822 174.804 74.7307 174.775 74.7695C174.446 75.3124 173.709 75.6711 173.059 75.5935C172.429 75.516 172.099 74.9827 171.925 74.4204C171.896 74.3429 172.002 74.3041 172.051 74.3526H172.061Z" fill="#263238"/>
<path d="M173.331 70.1836C174.145 71.347 175.309 71.9481 176.54 72.1323C177.093 72.2196 177.665 72.2099 178.227 72.1323C178.334 72.1323 178.45 72.1129 178.547 72.0839C178.644 72.0645 178.741 72.0548 178.848 72.0257C179.003 71.9966 179.09 71.8609 179.109 71.7057C179.109 71.6476 179.109 71.6088 179.09 71.5603V71.4343C179.071 70.3775 178.896 68.7681 178.896 68.7681C179.294 68.9426 181.3 69.7473 181.242 69.1947C180.777 64.6379 180.253 59.5576 178.828 55.1172C178.789 54.9718 178.557 55.0105 178.576 55.1657C178.848 59.5673 179.895 63.8914 180.244 68.3027C179.604 68.0894 178.557 67.6919 178.004 67.7307C177.859 67.7792 178.392 70.8235 178.363 71.2985C178.363 71.2985 178.363 71.3179 178.363 71.347C176.598 71.6476 175.231 71.1725 173.457 70.0479C173.35 69.9703 173.244 70.0672 173.331 70.1739V70.1836Z" fill="#263238"/>
<path d="M177.577 71.6281C177.577 71.6281 176.695 72.937 175.425 73.4412C174.959 73.6351 174.455 73.7223 173.912 73.5963C172.807 73.3539 172.729 72.3456 172.894 71.4827C173.03 70.7653 173.33 70.1448 173.33 70.1448C173.33 70.1448 174.998 71.5797 177.567 71.6281H177.577Z" fill="#263238"/>
<path d="M175.434 73.4411C174.969 73.635 174.465 73.7223 173.922 73.5962C172.817 73.3538 172.739 72.3455 172.904 71.4827C174.087 71.5505 175.279 72.3068 175.434 73.4411Z" fill="#FF99BA"/>
<path d="M154.406 65.8596C157.373 66.6449 159.001 64.095 159.738 62.2432C160.475 60.3915 159.69 49.1353 161.096 46.3528C162.501 43.5702 165.565 41.9899 168.008 42.688C170.451 43.3763 173.641 46.5467 175.444 46.3625C177.238 46.1782 177.626 42.2808 178.877 42.2614C181.63 42.2226 184.616 49.1644 185.149 52.1796C185.149 52.1796 185.149 38.8777 172.148 37.5786C159.283 36.2891 154.929 44.7046 153.853 48.602C151.788 56.0674 154.406 65.8693 154.406 65.8693V65.8596Z" fill="#263238"/>
<path d="M158.875 65.2585C158.875 65.2585 154.619 58.5785 151.614 60.0619C148.598 61.5549 151.604 71.0951 154.997 72.5397C158.4 73.9745 159.787 70.8527 159.787 70.8527L158.875 65.2585Z" fill="#EB9481"/>
<path d="M152.535 62.7864C152.477 62.7864 152.467 62.8542 152.515 62.8736C154.891 63.9595 156.074 66.2573 156.869 68.6326C156.19 67.7019 155.23 67.1686 153.989 67.9733C153.921 68.0121 153.989 68.1188 154.047 68.1091C155.046 67.9442 155.754 68.1382 156.394 68.9622C156.839 69.544 157.14 70.2711 157.45 70.9401C157.557 71.1631 157.954 71.0661 157.877 70.814C157.877 70.7946 157.867 70.7753 157.857 70.7559C158.051 67.6728 155.841 63.2421 152.535 62.7864Z" fill="#263238"/>
<path d="M149.906 104.815C123.157 120.444 100.693 125.447 94.9439 125.844C80.498 126.843 71.2003 78.2308 70.3083 69.4663C69.9108 65.5591 102.051 64.4636 103.117 68.5259C105.521 77.6879 108.217 95.5368 108.721 95.5659C112.298 95.7307 132.736 92.1338 151.118 91.0673C155.966 90.7861 157.488 100.384 149.916 104.815H149.906Z" fill="#EB9481"/>
<path d="M71.1323 42.8432C68.4855 50.0274 68.8249 66.8292 70.4634 70.8527C72.1019 74.8763 100.693 75.2544 103.466 71.7641C106.239 68.2738 113.278 43.4055 110.796 35.9887C108.323 28.5815 73.8664 35.3973 71.1226 42.8335L71.1323 42.8432Z" fill="#EB9481"/>
<path d="M118.534 66.3693L130.866 66.3865L130.917 30.1942L118.584 30.177L118.534 66.3693Z" fill="#455A64"/>
<path d="M130.88 63.365L136.804 63.3733L136.846 33.2308L130.922 33.2225L130.88 63.365Z" fill="#455A64"/>
<path d="M130.901 33.2115L130.859 63.354L133.826 63.3581L133.868 33.2157L130.901 33.2115Z" fill="#263238"/>
<path d="M69.22 30.0796L56.8877 30.0624L56.8372 66.2547L69.1695 66.2719L69.22 30.0796Z" fill="#455A64"/>
<path d="M56.873 33.0775L50.9492 33.0692L50.9071 63.2117L56.8309 63.22L56.873 33.0775Z" fill="#455A64"/>
<path d="M53.9093 33.0852L53.8672 63.2277L56.8339 63.2318L56.876 33.0893L53.9093 33.0852Z" fill="#263238"/>
<path d="M69.1808 53.5339L118.559 53.6201L118.577 42.9263L69.1995 42.8401L69.1808 53.5339Z" fill="#37474F"/>
<path d="M112.317 48.1562C109.147 50.6866 107.983 45.4997 107.983 45.4997C107.983 45.4997 107.867 53.3625 103.592 54.7101C99.471 55.9996 98.2785 49.688 98.1816 49.2323C98.1719 49.6492 97.881 56.8722 93.4406 57.7835C88.8257 58.724 88.719 52.1894 88.719 51.7628C88.5833 52.1506 86.7509 57.2794 83.2218 57.2018C77.1623 57.0661 81.5057 43.8321 79.1013 39.5468C79.1013 39.5468 71.3742 42.785 71.1318 42.8335C71.1318 42.8335 75.0002 30.1521 80.9628 27.2435C84.1041 25.7117 86.1498 28.3294 86.1498 28.3294C86.1498 28.3294 86.9448 24.1023 90.4157 23.2782C92.1996 22.8613 94.4586 25.3336 94.4586 25.3336C94.4586 25.3336 95.2342 21.979 98.3658 21.4361C100.867 20.9901 102.738 23.5496 102.738 23.5496C102.738 23.5496 104.978 20.6702 107.683 21.0483C113.132 21.7948 119.094 42.7171 112.308 48.1465L112.317 48.1562Z" fill="#EB9481"/>
<path d="M103.107 23.9084C103.078 23.8406 103.175 23.7921 103.214 23.86C106.849 30.2588 108.895 38.4125 108.081 45.7712C108.051 46.0136 107.654 46.0717 107.625 45.8003C107.014 38.0538 105.851 31.2186 103.107 23.9084Z" fill="#263238"/>
<path d="M94.4779 25.227C94.4489 25.1495 94.5749 25.101 94.6234 25.1786C98.3367 31.7907 100.382 41.04 98.4433 49.4167C98.3754 49.7075 98.0264 49.8917 98.0846 49.5621C98.9474 43.8904 96.9793 31.8101 94.4779 25.2367V25.227Z" fill="#263238"/>
<path d="M88.3795 52.3058C89.9211 44.2005 88.7188 36.4153 86.3241 28.6009C86.295 28.5039 86.4405 28.4652 86.4889 28.5427C88.6995 32.0524 89.7078 37.1909 90.144 41.2532C90.5706 45.1507 90.1731 48.7476 88.6607 52.3542C88.6025 52.49 88.3407 52.4706 88.3795 52.2961V52.3058Z" fill="#263238"/>
<path d="M107.984 45.4996C107.809 47.0121 107.528 48.5052 107.092 49.94C106.646 51.3556 106.016 52.7904 104.959 53.7115C104.435 54.1672 103.805 54.4386 103.136 54.4289C102.457 54.4096 101.759 54.2447 101.197 53.9054C100.043 53.2364 99.355 51.8403 99.132 50.5412L98.56 47.2642L97.9589 50.5412C97.6971 51.9664 97.222 53.44 96.5143 54.7004C95.8065 55.9608 94.7691 57.0273 93.4894 57.289C92.1514 57.5896 90.9007 57.1048 90.2705 55.9123C89.6016 54.7586 89.3689 53.2073 89.3786 51.7918L89.4077 47.8556L88.0988 51.5495C87.7401 52.5481 87.2359 53.5758 86.6348 54.4677C86.024 55.35 85.2581 56.1353 84.3565 56.4746C83.4742 56.814 82.398 56.6685 81.7581 56.0287C81.0698 55.3694 80.7304 54.2641 80.5074 53.1977C80.0809 50.9968 80.1196 48.6797 80.0324 46.3819C80.0033 45.2282 79.9742 44.0744 79.887 42.911C79.7803 41.767 79.6833 40.5648 79.1113 39.5468C79.5767 40.6132 79.5379 41.7864 79.567 42.9304C79.567 44.0744 79.5088 45.2282 79.4507 46.3819C79.3343 48.6894 79.2471 51.0065 79.567 53.3722C79.7706 54.5356 80.0324 55.7863 80.9631 56.814C81.9326 57.8708 83.5227 58.0841 84.7734 57.6187C86.0531 57.1436 86.9548 56.1741 87.6722 55.2046C88.38 54.1963 88.9229 53.1492 89.3592 51.9857L88.0794 51.7434C88.0503 53.4109 88.2346 55.0494 89.078 56.6201C89.4949 57.3957 90.2124 58.1034 91.1043 58.4428C91.9963 58.7918 92.9174 58.7918 93.7899 58.5979C95.6029 58.181 96.8536 56.7364 97.6195 55.3209C98.4049 53.8569 98.8702 52.3348 99.1417 50.7157H97.9686C98.3176 52.3639 99.2096 53.9151 100.741 54.7392C101.498 55.1367 102.341 55.2821 103.175 55.2627C104.038 55.2337 104.872 54.8265 105.463 54.2544C106.655 53.0716 107.121 51.5204 107.489 50.0467C107.838 48.5439 107.993 47.0218 107.993 45.4996H107.984Z" fill="#263238"/>
<path d="M105.414 67.7404C105.414 67.7404 127.723 44.1422 114.227 39.9442C110.213 38.6935 92.2579 38.3542 92.1221 41.9608C91.9476 46.6145 99.413 48.1561 104.261 48.3791C104.261 48.3791 95.5446 55.3402 98.5792 62.854C100.479 67.5659 105.424 67.7404 105.424 67.7404H105.414Z" fill="#EB9481"/>
<path d="M115.323 40.3612C113.84 39.6244 112.182 39.3045 110.563 39.0233C108.924 38.7518 107.267 38.6355 105.609 38.5967C102.293 38.5482 99.0062 38.5967 95.6614 39.1203C94.8276 39.2657 93.9841 39.4499 93.1309 39.8571C92.714 40.0607 92.268 40.3515 91.9287 40.7684C91.7542 40.972 91.6282 41.1659 91.5021 41.4859C91.4052 41.767 91.347 42.0385 91.347 42.2906C91.2888 43.3474 91.7251 44.2878 92.2971 45.0246C92.8982 45.7518 93.6254 46.3044 94.3816 46.7601C95.9135 47.6521 97.581 48.1174 99.2292 48.418C100.887 48.7476 102.555 48.864 104.222 48.9415L103.902 47.9138C102.904 48.7573 102.06 49.6687 101.256 50.6576C100.461 51.6368 99.7625 52.7033 99.1904 53.8279C98.6281 54.9526 98.2209 56.1645 98.0076 57.4055C97.7846 58.6465 97.8137 59.9165 98.0658 61.1284C97.9785 59.8971 98.0852 58.6659 98.3954 57.4927C98.7057 56.3196 99.2195 55.2143 99.8303 54.177C100.441 53.1396 101.168 52.1603 101.973 51.2684C102.778 50.3764 103.67 49.5232 104.6 48.8252L105.774 47.9332L104.271 47.7975C102.661 47.6424 101.042 47.5066 99.4813 47.1382C97.9301 46.7989 96.3691 46.3626 95.0603 45.5676C93.7805 44.8114 92.6365 43.6188 92.7043 42.3488C92.6656 41.2338 94.3816 40.6715 95.8941 40.3806C97.455 40.0704 99.0838 39.9153 100.713 39.7601C102.341 39.6147 103.97 39.479 105.599 39.4402C108.847 39.4111 112.163 39.3626 115.314 40.3419L115.323 40.3612Z" fill="#263238"/>
<path d="M151.69 90.9703C162.83 91.872 146.678 138.7 136.924 137.944C127.161 137.188 144.138 90.3498 151.69 90.9703Z" fill="#EB9481"/>
<path d="M146.436 107.346C146.067 107.452 145.709 107.569 145.34 107.685C146.94 106.764 148.491 105.785 150.013 104.738C150.042 104.718 150.013 104.66 149.974 104.679C148.094 105.6 146.242 106.551 144.419 107.578C143.556 108.063 142.674 108.519 141.83 109.033C140.88 109.614 139.959 110.235 138.97 110.749C138.854 110.807 138.941 110.991 139.048 110.933C139.988 110.429 140.958 110.022 141.918 109.556C142.751 109.149 143.556 108.693 144.361 108.247C144.632 108.189 144.914 108.131 145.185 108.044C145.631 107.908 146.067 107.763 146.494 107.588C147.357 107.249 148.2 106.871 149.053 106.512C149.063 106.512 149.053 106.492 149.053 106.492C148.2 106.822 147.328 107.094 146.445 107.346H146.436Z" fill="#263238"/>
<path d="M0 418.902C130.459 418.311 276.799 418.301 407.258 418.902C276.799 419.503 130.459 419.494 0 418.902Z" fill="#263238"/>
<path d="M28.4173 382.722L16.085 382.74L16.1355 418.932L28.4678 418.915L28.4173 382.722Z" fill="#455A64"/>
<path d="M16.0986 385.764L10.1748 385.773L10.2169 415.915L16.1407 415.907L16.0986 385.764Z" fill="#455A64"/>
<path d="M16.1083 385.755L13.1416 385.759L13.1837 415.901L16.1504 415.897L16.1083 385.755Z" fill="#263238"/>
<path d="M77.903 418.811L90.2354 418.794L90.1848 382.602L77.8525 382.619L77.903 418.811Z" fill="#455A64"/>
<path d="M90.2413 415.775L96.165 415.767L96.123 385.625L90.1992 385.633L90.2413 415.775Z" fill="#455A64"/>
<path d="M93.1083 385.648L90.1416 385.652L90.1837 415.794L93.1504 415.79L93.1083 385.648Z" fill="#263238"/>
<path d="M77.8065 395.381L28.4287 395.467L28.4474 406.161L77.8251 406.075L77.8065 395.381Z" fill="#37474F"/>
<path d="M156.151 332.343H147.271V342.562H156.151V332.343Z" fill="#DBDBDB"/>
<path d="M158.963 339.246H144.479V350.909H158.963V339.246Z" fill="#C7C7C7"/>
<path d="M168.93 365.355V418.737H134.502V365.355C134.502 354.788 141.143 346.634 151.711 346.634C162.279 346.634 168.93 354.788 168.93 365.355Z" fill="#4DB8D7"/>
<path d="M168.93 374.75H134.502V383.796H168.93V374.75Z" fill="#455A64"/>
<path d="M168.93 388.013H134.502V392.541H168.93V388.013Z" fill="#455A64"/>
</svg>
